<svg width="40" height="41" viewBox="0 0 40 41" fill="none" xmlns="http://www.w3.org/2000/svg">
<g clip-path="url(#clip0_118_523)">
<rect y="0.75" width="40" height="40" rx="20" fill="white"/>
<path d="M23.0018 17.6011C23.0018 17.9105 22.7473 18.1614 22.4334 18.1614C22.1194 18.1614 21.8649 17.9105 21.8649 17.6011C21.8649 17.2917 22.1194 17.0409 22.4334 17.0409C22.7473 17.0409 23.0018 17.2917 23.0018 17.6011Z" fill="black"/>
<path d="M14.9678 17.6011C14.9678 17.9105 14.7133 18.1614 14.3993 18.1614C14.0854 18.1614 13.8309 17.9105 13.8309 17.6011C13.8309 17.2917 14.0854 17.0409 14.3993 17.0409C14.7133 17.0409 14.9678 17.2917 14.9678 17.6011Z" fill="black"/>
<path d="M33.263 16.2883C33.3348 16.5253 33.4043 16.7622 33.4715 16.9989M33.263 16.2883L27.4392 18.6352M33.263 16.2883C33.2081 16.0443 33.1491 15.8051 33.0864 15.5707M20.0694 4.77033C20.0303 4.76953 19.9943 4.76601 19.9559 4.75925C19.6344 4.70267 19.2873 4.65728 18.921 4.62682M20.0694 4.77033C20.7327 4.78398 21.5322 4.87701 22.4076 5.07681M20.0694 4.77033L18.0211 7.95205M8.31766 32.9488C8.39425 32.5889 8.46596 32.245 8.53305 31.9161M8.31766 32.9488L16.1605 29.9207M8.31766 32.9488C8.25599 33.2385 8.16497 33.55 8.0573 33.8752M6.84597 39.0832C6.93434 39.3639 7.25434 39.4675 7.54313 39.3939C7.91973 39.2978 8.3701 39.1943 8.85942 39.0937M6.84597 39.0832C6.75492 38.7941 6.73344 38.4669 6.76151 38.1139M6.84597 39.0832L15.7874 35.0727M16.698 30.5248C16.6781 30.2301 16.4504 29.996 16.1605 29.9207M16.698 30.5248L8.0573 33.8752M16.698 30.5248C16.717 30.8055 16.7212 31.0829 16.7122 31.3564M16.1605 29.9207C15.8584 29.8423 15.5186 29.737 15.1619 29.6007M11.1902 25.4997C11.1822 25.4567 11.1792 25.4138 11.1803 25.3701C11.1859 25.1505 11.1907 24.9153 11.1949 24.6673M11.1902 25.4997L9.38613 25.9585M11.1902 25.4997C11.2564 25.8599 11.3623 26.1943 11.5 26.5044M11.1786 14.9041C11.1786 14.7674 11.1911 14.6133 11.2157 14.4451M11.1786 14.9041L8.32758 13.8357M11.1786 14.9041C11.1786 15.0028 11.1795 15.1639 11.1811 15.3767M18.0211 7.95205C18.1725 7.96828 18.3127 8.04147 18.418 8.14978M18.0211 7.95205C17.8597 7.93473 17.7007 7.92569 17.5444 7.92444M18.418 8.14978L19.1183 8.87005M18.418 8.14978L22.4076 5.07681M27.1708 17.1521C27.2806 17.265 27.3479 17.4102 27.3607 17.566M27.1708 17.1521L32.6152 14.0835M27.1708 17.1521L26.8059 16.7768M27.3607 17.566C27.373 17.7149 27.3855 17.8742 27.3979 18.0418M27.3607 17.566L32.8846 14.8752M31.6435 38.493C30.9064 38.3206 30.1734 38.191 29.6439 38.1139C29.5582 38.1014 29.4756 38.0741 29.4001 38.0323L29.3059 37.9802C29.2019 37.9227 29.0817 37.8935 28.9625 37.8892C28.556 37.8745 28.1766 37.8115 27.8228 37.7075M31.6435 38.493C32.2149 38.6267 32.7888 38.7862 33.2722 38.9669C33.77 39.1529 34.4634 38.8928 34.5614 38.3774C34.5973 38.1886 34.6328 37.9909 34.6676 37.7846M31.6435 38.493L34.6676 37.7846M34.6676 37.7846C34.6874 37.6676 34.7069 37.5479 34.7262 37.4255M34.7845 37.0418H26.4729M34.7845 37.0418C34.7654 37.1725 34.7459 37.3004 34.7262 37.4255M34.7845 37.0418C34.8294 36.7348 34.8725 36.4126 34.9131 36.0763M26.4729 37.0418C26.8742 37.3318 27.3229 37.5606 27.8228 37.7075M26.4729 37.0418C26.1558 36.8127 25.8683 36.5454 25.6085 36.2502M27.8228 37.7075L34.7262 37.4255M34.9131 36.0763L25.6085 36.2502M34.9131 36.0763C34.9476 35.7909 34.9802 35.4954 35.0107 35.1902M25.6085 36.2502C25.4691 36.0917 25.3377 35.9253 25.2139 35.7523M25.2139 35.7523L35.0107 35.1902M25.2139 35.7523C25.0584 35.535 24.915 35.3074 24.7831 35.0727M35.0107 35.1902C35.0388 34.9089 35.065 34.6194 35.089 34.3223M35.089 34.3223L24.7831 35.0727M35.089 34.3223C35.1142 34.0096 35.1371 33.6884 35.157 33.3592M24.7831 35.0727C24.6462 34.829 24.5218 34.5777 24.4091 34.3223M24.4091 34.3223L35.157 33.3592M24.4091 34.3223C24.2839 34.0384 24.1733 33.7494 24.0763 33.4601M35.157 33.3592C35.1989 32.6688 35.2283 31.9435 35.2418 31.188M35.2103 32.2918L24.0763 33.4601M24.0763 33.4601C23.8827 32.8825 23.7435 32.3035 23.6517 31.7613M23.8279 32.6057L35.2418 31.188M35.2418 31.188C35.2473 30.8761 35.2501 30.5591 35.25 30.2373M35.25 30.2373L23.6517 31.7613M35.25 30.2373C35.2498 29.8725 35.2458 29.5017 35.2376 29.1252M23.6517 31.7613C23.6091 31.51 23.5767 31.2666 23.5538 31.0349M23.5538 31.0349L35.2376 29.1252M23.5538 31.0349C23.5254 30.7488 23.5116 30.4805 23.5108 30.2373M35.2376 29.1252C35.2329 28.9066 35.2267 28.6862 35.2191 28.464M35.2191 28.464L23.5108 30.2373M35.2191 28.464C35.2064 28.0963 35.1897 27.7238 35.1686 27.3467M23.5108 30.2373C23.5099 29.9703 23.5248 29.7334 23.5538 29.5361M23.5538 29.5361C23.5978 29.2363 23.6741 29.028 23.7768 28.9443C24.0601 28.7133 24.3492 28.4617 24.6347 28.1954M23.5538 29.5361L35.1686 27.3467M35.1686 27.3467C35.1503 27.019 35.1287 26.6879 35.1035 26.3537M35.1035 26.3537L24.6347 28.1954M35.1035 26.3537C35.0789 26.0265 35.0509 25.6964 35.0193 25.3636M24.6347 28.1954C24.9238 27.9256 25.2093 27.6407 25.4816 27.3467M25.4816 27.3467L35.0193 25.3636M25.4816 27.3467C25.8268 26.974 26.1506 26.5866 26.4336 26.197M35.0193 25.3636C34.9847 24.9982 34.9457 24.6295 34.9021 24.258M34.9021 24.258L26.4336 26.197M34.9021 24.258C34.8653 23.9437 34.8252 23.6274 34.7816 23.3092M26.4336 26.197C26.6356 25.9189 26.8167 25.6396 26.9699 25.3636M26.9699 25.3636C27.1242 25.0856 27.2502 24.811 27.3404 24.5444C27.3474 24.5238 27.3541 24.5023 27.3607 24.48M26.9699 25.3636L34.7816 23.3092M34.7816 23.3092C34.7505 23.0817 34.7176 22.8532 34.6829 22.6239M34.6829 22.6239L27.3607 24.48M34.6829 22.6239C34.6429 22.3601 34.6006 22.0953 34.5558 21.8294M27.3607 24.48C27.4153 24.2951 27.457 24.0515 27.4878 23.7644M27.4878 23.7644L34.5558 21.8294M27.4878 23.7644C27.5111 23.5483 27.5282 23.3076 27.5402 23.0488M34.5558 21.8294C34.5024 21.5127 34.4455 21.1945 34.3849 20.8751M34.3849 20.8751L27.5402 23.0488M34.3849 20.8751C34.3281 20.5757 34.2681 20.2753 34.2047 19.9741M27.5402 23.0488C27.5515 22.8018 27.5581 22.5384 27.5608 22.2641M27.5608 22.2641L34.2047 19.9741M27.5608 22.2641C27.5626 22.0746 27.5625 21.8799 27.5608 21.6818M34.2047 19.9741C34.1585 19.7549 34.1107 19.5353 34.0609 19.3152M34.0609 19.3152L27.5608 21.6818M34.0609 19.3152C34.0015 19.052 33.9394 18.7882 33.8746 18.5239M27.5608 21.6818C27.5584 21.4173 27.5532 21.1469 27.5456 20.8751M27.5456 20.8751L33.8746 18.5239M27.5456 20.8751C27.5391 20.6425 27.5309 20.4089 27.5214 20.177M33.8746 18.5239C33.8081 18.2529 33.7389 17.9813 33.6667 17.7094M33.6667 17.7094L27.5214 20.177M33.6667 17.7094C33.6038 17.4728 33.5388 17.2359 33.4715 16.9989M27.5214 20.177C27.5115 19.9358 27.5002 19.6964 27.4878 19.4621M27.4878 19.4621L33.4715 16.9989M27.4878 19.4621C27.4729 19.1773 27.4564 18.8998 27.4392 18.6352M27.4392 18.6352C27.4257 18.4287 27.4119 18.23 27.3979 18.0418M27.3979 18.0418L33.0864 15.5707M33.0864 15.5707C33.023 15.3341 32.9557 15.1022 32.8846 14.8752M32.8846 14.8752C32.8 14.6046 32.7101 14.3407 32.6152 14.0835M32.6152 14.0835C32.5361 13.8691 32.4536 13.6593 32.3678 13.454M32.3678 13.454L26.8059 16.7768M32.3678 13.454C32.2766 13.2356 32.1817 13.0224 32.0833 12.8142M26.8059 16.7768L26.331 16.2883M26.331 16.2883L32.0833 12.8142M26.331 16.2883L25.8919 15.8367M32.0833 12.8142C31.9764 12.5878 31.8654 12.3674 31.7507 12.1527M31.7507 12.1527L25.8919 15.8367M31.7507 12.1527C31.6443 11.9536 31.5346 11.7595 31.4219 11.5703M25.8919 15.8367L25.4447 15.3767M25.4447 15.3767L31.4219 11.5703M25.4447 15.3767L24.957 14.8752M31.4219 11.5703C31.2881 11.3457 31.1501 11.1279 31.0082 10.9168M31.0082 10.9168L24.957 14.8752M31.0082 10.9168C30.8641 10.7025 30.7161 10.4951 30.5644 10.2943M24.957 14.8752L24.5388 14.4451M24.5388 14.4451L30.5644 10.2943M24.5388 14.4451L23.9463 13.8357M30.5644 10.2943C30.4175 10.0997 30.2671 9.91141 30.1138 9.72921M30.1138 9.72921L23.9463 13.8357M30.1138 9.72921C29.9808 9.57119 29.8456 9.41775 29.7083 9.2688M23.9463 13.8357L23.4175 13.2918M23.4175 13.2918L29.7083 9.2688M23.4175 13.2918L22.9531 12.8142M29.7083 9.2688C29.5323 9.07776 29.3529 8.89408 29.1707 8.71755M29.1707 8.71755L22.9531 12.8142M29.1707 8.71755C28.9663 8.51941 28.7583 8.33026 28.5474 8.14978M22.9531 12.8142L22.4076 12.2531M22.4076 12.2531L28.5474 8.14978M22.4076 12.2531L21.8781 11.7085M28.5474 8.14978C28.335 7.96793 28.1196 7.79487 27.9022 7.63027M27.9022 7.63027L21.8781 11.7085M27.9022 7.63027C27.6917 7.47092 27.4791 7.31951 27.2653 7.17572M21.8781 11.7085L21.4189 11.2362M21.4189 11.2362L27.2653 7.17572M21.4189 11.2362L20.8574 10.6587M27.2653 7.17572C26.9559 6.96776 26.6438 6.77576 26.331 6.59881M26.331 6.59881L20.8574 10.6587M26.331 6.59881C26.0963 6.46609 25.8611 6.34182 25.6264 6.22564M20.8574 10.6587L20.5031 10.2943M20.5031 10.2943L25.6264 6.22564M20.5031 10.2943L19.8186 9.59031M25.6264 6.22564C25.2618 6.04516 24.8982 5.88418 24.5388 5.74123M24.5388 5.74123L19.8186 9.59031M24.5388 5.74123C24.1591 5.59022 23.7841 5.45935 23.4175 5.34689M19.8186 9.59031L19.1183 8.87005M19.1183 8.87005L23.4175 5.34689M23.4175 5.34689C23.0724 5.24101 22.7347 5.15146 22.4076 5.07681M18.921 4.62682L17.5444 7.92444M18.921 4.62682C18.5739 4.59795 18.2096 4.58247 17.8333 4.58355M17.5444 7.92444C17.4318 7.92353 17.3205 7.92667 17.2105 7.93365M17.2105 7.93365L17.8333 4.58355M17.2105 7.93365C16.958 7.9497 16.7126 7.98605 16.4745 8.04049M17.8333 4.58355C17.3937 4.5848 16.9379 4.60866 16.4745 4.66018M16.4745 4.66018L16.8272 7.92444M16.4745 4.66018C16.221 4.68835 15.9653 4.72479 15.7088 4.77033M16.4745 8.04049L15.7088 4.77033M16.4745 8.04049C16.2885 8.08299 16.107 8.1365 15.93 8.19998M15.7088 4.77033C15.2822 4.84607 14.8533 4.94696 14.4285 5.07681M14.4285 5.07681L15.93 8.19998M14.4285 5.07681C14.0998 5.17729 13.7736 5.29511 13.4529 5.43203M15.93 8.19998C15.7166 8.2765 15.5096 8.3675 15.3094 8.47112M15.3094 8.47112L13.4529 5.43203M15.3094 8.47112C15.0821 8.58874 14.8633 8.72262 14.6533 8.87005M13.4529 5.43203C13.1259 5.57165 12.8046 5.73112 12.4922 5.91232M12.4922 5.91232L14.6533 8.87005M12.4922 5.91232C12.2505 6.05253 12.0142 6.20573 11.7847 6.37281M14.6533 8.87005C14.4769 8.99394 14.3066 9.12739 14.1427 9.2688M14.1427 9.2688L11.7847 6.37281M14.1427 9.2688C13.9738 9.41442 13.8117 9.56848 13.6564 9.72921M11.7847 6.37281C11.5388 6.55177 11.3008 6.74665 11.0724 6.9585M11.0724 6.9585L13.6564 9.72921M11.0724 6.9585C10.8501 7.16473 10.6369 7.38706 10.4346 7.62646M13.6564 9.72921C13.4818 9.90997 13.3158 10.0992 13.1587 10.2943M13.1587 10.2943L10.4346 7.62646M13.1587 10.2943C12.9959 10.4964 12.8426 10.7048 12.699 10.9168M10.4346 7.62646C10.2141 7.88732 10.0064 8.16845 9.81377 8.47112M9.81377 8.47112L12.699 10.9168M9.81377 8.47112C9.6541 8.72198 9.50475 8.98763 9.36695 9.2688M12.699 10.9168C12.5778 11.0959 12.4634 11.2775 12.3561 11.46M12.3561 11.46L9.36695 9.2688M12.3561 11.46C12.2237 11.6851 12.102 11.9116 11.9913 12.1362M9.36695 9.2688C9.23421 9.53964 9.11219 9.82488 9.00199 10.1252M9.00199 10.1252L11.9913 12.1362M9.00199 10.1252C8.90911 10.3782 8.82464 10.642 8.74922 10.9168M11.9913 12.1362C11.8608 12.4008 11.7456 12.6628 11.6459 12.9173M11.6459 12.9173L8.74922 10.9168M11.6459 12.9173C11.5198 13.2391 11.4185 13.5487 11.343 13.8357M8.74922 10.9168C8.67944 11.1711 8.61741 11.4349 8.56367 11.7085M8.56367 11.7085L11.343 13.8357M8.56367 11.7085C8.49449 12.0606 8.43903 12.429 8.39841 12.8142M11.343 13.8357C11.2857 14.0533 11.2432 14.258 11.2157 14.4451M11.2157 14.4451L8.39841 12.8142M8.39841 12.8142C8.3638 13.1423 8.33997 13.4827 8.32758 13.8357M8.32758 13.8357C8.321 14.0234 8.31766 14.2147 8.31766 14.4097C8.31766 15.6002 8.34232 16.6238 8.38417 17.5136M11.1811 15.3767L8.33333 14.8752L8.31766 15.6668L11.1856 15.9359M11.1811 15.3767C11.1823 15.5357 11.1838 15.7236 11.1856 15.9359M11.1856 15.9359C11.187 16.0967 11.1884 16.2715 11.19 16.4585M11.19 16.4585H8.33333L8.38417 17.5136M11.19 16.4585C11.1924 16.7433 11.1949 17.0562 11.1975 17.3904M8.38417 17.5136L11.1975 17.3904M8.38417 17.5136C8.39519 17.7478 8.40739 17.9728 8.42065 18.1891M11.1975 17.3904C11.1991 17.5998 11.2007 17.8174 11.2022 18.0418M8.42065 18.1891L11.2022 18.0418M8.42065 18.1891C8.43948 18.4963 8.46043 18.786 8.48311 19.0599M11.2022 18.0418C11.2037 18.2551 11.2051 18.4744 11.2064 18.6983M11.2064 18.6983L8.48311 19.0599M11.2064 18.6983C11.2082 19 11.2099 19.3102 11.2113 19.6252M8.48311 19.0599C8.51159 19.4039 8.5428 19.723 8.57596 20.0209M8.57596 20.0209L11.2113 19.6252M8.57596 20.0209C8.60824 20.3107 8.64237 20.5804 8.67764 20.8331M11.2113 19.6252C11.2121 19.807 11.2128 19.9906 11.2134 20.175M11.2134 20.175L8.67764 20.8331M11.2134 20.175C11.2143 20.455 11.215 20.7371 11.2154 21.019M8.67764 20.8331C8.71184 21.0781 8.74711 21.3071 8.78281 21.523M8.78281 21.523L11.2154 21.019M8.78281 21.523C8.85595 21.9654 8.93087 22.3528 9.00199 22.7101M11.2154 21.019C11.2159 21.347 11.2159 21.6748 11.2154 21.9986M11.2154 21.9986L9.00199 22.7101M11.2154 21.9986C11.2149 22.3462 11.2138 22.6893 11.2119 23.0233M9.00199 22.7101C9.06333 23.0183 9.12183 23.3041 9.17392 23.5835M9.17392 23.5835L11.2119 23.0233M9.17392 23.5835C9.21197 23.7876 9.2466 23.9883 9.2764 24.1918M11.2119 23.0233C11.2102 23.3424 11.2077 23.6532 11.2045 23.9517M11.2045 23.9517L9.2764 24.1918M11.2045 23.9517C11.2019 24.1995 11.1987 24.4388 11.1949 24.6673M9.2764 24.1918C9.31466 24.453 9.34497 24.7189 9.36436 25.0026M9.36436 25.0026L11.1949 24.6673M9.36436 25.0026C9.38449 25.2972 9.39285 25.6109 9.38613 25.9585M9.38613 25.9585C9.38078 26.2357 9.36584 26.5344 9.33963 26.8622M9.33963 26.8622L11.5 26.5044M9.33963 26.8622C9.31257 27.2007 9.27351 27.5701 9.22058 27.9787M11.5 26.5044C11.6348 26.808 11.8 27.0883 11.9885 27.3467M9.22058 27.9787L11.9885 27.3467M9.22058 27.9787C9.18902 28.2223 9.15253 28.48 9.11072 28.7533M11.9885 27.3467C12.0839 27.4776 12.1853 27.6029 12.2917 27.7228M12.2917 27.7228L9.11072 28.7533M12.2917 27.7228C12.5072 27.9657 12.7433 28.1865 12.992 28.3866M9.11072 28.7533C9.07284 29.0009 9.03059 29.2614 8.98368 29.5361M8.98368 29.5361L12.992 28.3866M8.98368 29.5361C8.94541 29.7602 8.90405 29.9937 8.85942 30.2373M12.992 28.3866C13.2035 28.5568 13.4241 28.712 13.649 28.8533M13.649 28.8533L8.85942 30.2373M13.649 28.8533C13.871 28.9929 14.0972 29.1188 14.323 29.2321M8.85942 30.2373C8.80396 30.5401 8.74347 30.8586 8.67764 31.194M8.67764 31.194L14.323 29.2321M8.67764 31.194C8.63203 31.4264 8.58387 31.667 8.53305 31.9161M14.323 29.2321C14.6064 29.3743 14.8891 29.4966 15.1619 29.6007M15.1619 29.6007L8.53305 31.9161M8.0573 33.8752C7.94232 34.2224 7.80837 34.5854 7.67089 34.9546M7.67089 34.9546L16.7122 31.3564M7.67089 34.9546C7.55279 35.2718 7.43209 35.5935 7.3186 35.9138M16.7122 31.3564C16.7017 31.6738 16.6734 31.986 16.6298 32.2918M16.6298 32.2918L7.3186 35.9138M16.6298 32.2918C16.5914 32.5608 16.5411 32.8249 16.4806 33.0835M7.3186 35.9138C7.18342 36.2953 7.05847 36.6747 6.96034 37.0418M6.96034 37.0418L16.4806 33.0835M6.96034 37.0418C6.86045 37.4155 6.78834 37.7765 6.76151 38.1139M16.4806 33.0835C16.4174 33.3537 16.3431 33.6179 16.2596 33.8752M16.2596 33.8752L6.76151 38.1139M16.2596 33.8752C16.1238 34.2936 15.9636 34.6939 15.7874 35.0727M15.7874 35.0727C15.5529 35.5765 15.2901 36.0423 15.0183 36.4622M15.0183 36.4622L8.85942 39.0937M15.0183 36.4622C14.7392 36.8934 14.4507 37.2761 14.1738 37.6018M8.85942 39.0937C9.83953 38.8921 10.9759 38.7016 11.9885 38.6037M11.9885 38.6037C12.3421 38.5696 12.6805 38.5467 12.992 38.5385C13.1506 38.5344 13.3036 38.484 13.4217 38.3796C13.6487 38.179 13.9058 37.9172 14.1738 37.6018M11.9885 38.6037L14.1738 37.6018M17.9368 20.9309C18.3999 20.4745 18.3899 18.4881 18.51 17.3752M22.4334 18.1614C22.7473 18.1614 23.0018 17.9105 23.0018 17.6011C23.0018 17.2917 22.7473 17.0409 22.4334 17.0409M22.4334 18.1614C22.1194 18.1614 21.8649 17.9105 21.8649 17.6011C21.8649 17.2917 22.1194 17.0409 22.4334 17.0409M22.4334 18.1614V17.0409M14.3993 18.1614C14.7133 18.1614 14.9678 17.9105 14.9678 17.6011C14.9678 17.2917 14.7133 17.0409 14.3993 17.0409M14.3993 18.1614C14.0854 18.1614 13.8309 17.9105 13.8309 17.6011C13.8309 17.2917 14.0854 17.0409 14.3993 17.0409M14.3993 18.1614V17.0409M13.0833 14.415C13.6496 13.9965 14.4989 13.95 15.3954 14.4151M21.2412 14.4147C22.2792 14.0427 23.6004 14.4147 24.1667 15.2516M20.2729 24.332C19.5727 25.6259 17.9367 25.1823 17.158 24.5599" stroke="black" stroke-linecap="round"/>
</g>
<defs>
<clipPath id="clip0_118_523">
<rect y="0.75" width="40" height="40" rx="20" fill="white"/>
</clipPath>
</defs>
</svg>
