<svg width="40" height="40" viewBox="0 0 40 40" fill="none" xmlns="http://www.w3.org/2000/svg">
<rect width="40" height="40" rx="20" fill="white"/>
<path d="M29.0922 15.9976C29.0922 17.266 29.4165 20.312 29.4165 22.1265C29.6328 21.8984 29.8314 21.6929 30.0157 21.5M29.0922 15.9976C28.9797 15.9976 28.8676 15.9967 28.7559 15.995M29.0922 15.9976L26.75 3.58868M29.0922 15.9976L27.6683 3.76378M16.8839 12.6316C16.8911 13.0759 16.847 13.5024 16.7635 13.909M16.8839 12.6316L14.5971 7.05552M16.8839 12.6316C17.1785 12.8266 17.5673 13.0556 18.0386 13.3007M13.2445 18.9245C13.2445 18.9245 13.7751 20.4612 14.0789 23.9002M13.2445 18.9245L8.58074 10.1375M13.2445 18.9245C13.2445 18.9245 13.5575 18.7141 14 18.3221M14.0789 23.9002C14.3226 26.6517 13.6232 26.12 13.2445 25.5102M14.0789 23.9002L7.67094 11.2635M13.2445 25.5102L6.97176 12.6316M13.2445 25.5102C12.5068 23.215 11.4504 22.8859 10.6088 23.1849M17.3395 6.77773C17.1188 6.75603 16.8224 6.75451 16.4689 6.77773M17.3395 6.77773L20 14.1945M17.3395 6.77773C17.5637 6.59325 17.7974 6.41312 18.0386 6.2383M24.2996 3.55462C23.9871 3.58479 23.6541 3.6421 23.3069 3.72372M24.2996 3.55462L27.5 15.9402M24.2996 3.55462C24.583 3.52728 24.8603 3.51037 25.1315 3.50352M6.97176 12.6316C6.70417 13.339 6.539 14.1248 6.50609 14.9965M6.97176 12.6316C7.15838 12.1382 7.39482 11.683 7.67094 11.2635M6.50609 14.9965C6.41864 17.3126 7.26499 20.2345 9.60507 23.9002C9.85114 23.6157 10.2053 23.3281 10.6088 23.1849M6.50609 14.9965L10.6088 23.1849M7.67094 11.2635C7.93971 10.8552 8.24609 10.4806 8.58074 10.1375M8.58074 10.1375C8.84154 9.87013 9.11952 9.62188 9.41024 9.39166M14 18.3221L9.41024 9.39166M14 18.3221C14.1815 18.1613 14.3847 17.9699 14.5971 17.75M9.41024 9.39166C9.64868 9.20285 9.89569 9.02617 10.1488 8.86102M10.1488 8.86102L14.5971 17.75M10.1488 8.86102C10.3834 8.70798 10.6233 8.56485 10.8664 8.43114M14.5971 17.75C14.781 17.5595 14.9718 17.3476 15.1612 17.1156M15.1612 17.1156L10.8664 8.43114M15.1612 17.1156C15.3198 16.9212 15.4775 16.7126 15.6294 16.4906M10.8664 8.43114C11.0825 8.31235 11.3012 8.20099 11.5211 8.09674M11.5211 8.09674L15.6294 16.4906M11.5211 8.09674C11.789 7.96974 12.0588 7.85328 12.3281 7.74676M15.6294 16.4906C15.8042 16.2352 15.9713 15.962 16.1233 15.6723M16.1233 15.6723L12.3281 7.74676M16.1233 15.6723C16.2534 15.4243 16.3724 15.1641 16.4758 14.8925M12.3281 7.74676C12.5351 7.66483 12.7418 7.58878 12.9471 7.51833M12.9471 7.51833L16.4758 14.8925M12.9471 7.51833C13.2401 7.41774 13.5302 7.32856 13.8141 7.25M16.4758 14.8925C16.5949 14.5794 16.6932 14.2512 16.7635 13.909M16.7635 13.909L13.8141 7.25M13.8141 7.25C14.0815 7.17597 14.3435 7.11137 14.5971 7.05552M14.5971 7.05552C14.8811 6.99298 15.1548 6.94141 15.4142 6.89987M15.4142 6.89987L18.0386 13.3007M15.4142 6.89987C15.8016 6.83786 16.1574 6.79818 16.4689 6.77773M18.0386 13.3007C18.3532 13.4644 18.7045 13.6353 19.0892 13.8081M16.4689 6.77773L19.0892 13.8081M19.0892 13.8081C19.3749 13.9365 19.679 14.066 20 14.1945M20 14.1945C20.2935 14.3119 20.6011 14.4284 20.9218 14.5423M18.0386 6.2383L20.9218 14.5423M18.0386 6.2383C18.2704 6.07033 18.509 5.90727 18.7527 5.75M20.9218 14.5423C21.1731 14.6316 21.4324 14.7194 21.6991 14.8048M18.7527 5.75L21.6991 14.8048M18.7527 5.75C18.9984 5.59143 19.2491 5.43874 19.503 5.29283M21.6991 14.8048C21.9603 14.8883 22.2286 14.9697 22.5036 15.048M22.5036 15.048L19.503 5.29283M22.5036 15.048C22.7982 15.1319 23.1005 15.2124 23.4098 15.2885M19.503 5.29283C19.7229 5.16644 19.9452 5.04514 20.1685 4.9295M20.1685 4.9295L23.4098 15.2885M20.1685 4.9295C20.4507 4.78342 20.7346 4.64639 21.0176 4.51958M23.4098 15.2885C23.7004 15.36 23.9971 15.4276 24.2996 15.4907M24.2996 15.4907L21.0176 4.51958M24.2996 15.4907C24.5724 15.5475 24.8498 15.6006 25.1315 15.6494M21.0176 4.51958C21.2649 4.40882 21.5115 4.30586 21.7558 4.21149M21.7558 4.21149L25.1315 15.6494M21.7558 4.21149C22.0082 4.11399 22.258 4.02565 22.5036 3.94733M25.1315 15.6494C25.3917 15.6945 25.6555 15.736 25.9227 15.7733M25.9227 15.7733L22.5036 3.94733M25.9227 15.7733C26.195 15.8114 26.4709 15.8452 26.75 15.8742M22.5036 3.94733C22.7776 3.85991 23.0463 3.78497 23.3069 3.72372M23.3069 3.72372L26.75 15.8742M26.75 15.8742C26.9976 15.9 27.2476 15.9221 27.5 15.9402M27.5 15.9402C27.7062 15.9549 27.9139 15.967 28.1231 15.9762M25.1315 3.50352L28.1231 15.9762M25.1315 3.50352C25.4536 3.49538 25.767 3.50142 26.0717 3.52101M28.1231 15.9762C28.3326 15.9854 28.5436 15.9917 28.7559 15.995M28.7559 15.995L26.0717 3.52101M26.0717 3.52101C26.3029 3.53586 26.529 3.55851 26.75 3.58868M26.75 3.58868C27.0666 3.63189 27.3727 3.69053 27.6683 3.76378M27.6683 3.76378C27.954 3.83456 28.2297 3.91899 28.4955 4.01635M28.4955 4.01635L30.0157 21.5M28.4955 4.01635C28.7591 4.11292 29.0129 4.22222 29.2567 4.34352M30.0157 21.5C30.2232 21.283 30.4125 21.0819 30.5886 20.8825M30.5886 20.8825L29.2567 4.34352M30.5886 20.8825C30.83 20.609 31.0464 20.3385 31.25 20.0341M29.2567 4.34352C29.5216 4.47528 29.7746 4.62121 30.0157 4.7804M30.0157 4.7804L31.25 20.0341M30.0157 4.7804C30.3649 5.01092 30.689 5.26924 30.9875 5.55261M31.25 20.0341C31.4074 19.7987 31.5572 19.5431 31.7049 19.25M31.7049 19.25L30.9875 5.55261M31.7049 19.25C31.896 18.8709 32.0838 18.4292 32.2805 17.8879M30.9875 5.55261C31.2135 5.76721 31.4249 5.99617 31.6213 6.2383M31.6213 6.2383L32.2805 17.8879M31.6213 6.2383C31.9525 6.64644 32.2412 7.09199 32.4865 7.5692M32.2805 17.8879C32.4148 17.5182 32.5532 17.1022 32.6997 16.6279M32.6997 16.6279C32.7814 16.3635 32.8655 16.0811 32.9528 15.7785C33.8303 12.7401 33.6364 9.80657 32.4865 7.5692M32.6997 16.6279L32.4865 7.5692M13.3571 29.1385C14.3204 34.986 20.7836 39.1909 25.4483 34.4538C30.113 29.7169 29.1789 21.0462 28.6808 17M9.49961 23C8.93381 24.4248 9.65735 29.041 13.3571 29.041M28.6786 28.2951C29.8986 27.784 31.7777 25.6782 31.4463 22.6475M20.7496 32C22.2496 32.75 22.2496 31.25 23.5357 30.4262M25.6715 24.2611C25.6715 24.4613 25.5083 24.6237 25.3069 24.6237M25.6715 24.2611C25.6715 24.0608 25.5083 23.8985 25.3069 23.8985M25.6715 24.2611H24.9424M25.3069 24.6237C25.1056 24.6237 24.9424 24.4613 24.9424 24.2611M25.3069 24.6237V23.8985M24.9424 24.2611C24.9424 24.0608 25.1056 23.8985 25.3069 23.8985M18.3802 24.4424C18.3802 24.6426 18.217 24.8049 18.0157 24.8049M18.3802 24.4424C18.3802 24.2421 18.217 24.0798 18.0157 24.0798M18.3802 24.4424H17.6511M18.0157 24.8049C17.8143 24.8049 17.6511 24.6426 17.6511 24.4424M18.0157 24.8049V24.0798M17.6511 24.4424C17.6511 24.2421 17.8143 24.0798 18.0157 24.0798M15.9282 21.7628C16.1045 21.3126 16.8667 20.4799 18.4996 20.75M24.1782 20.75C24.5676 20.5088 25.6273 20.171 26.7496 20.75M21.2642 24.1393C21.1409 25.1574 21.0552 27.2223 21.7143 27.336" stroke="black" stroke-linecap="round"/>
</svg>
