<svg width="429" height="292" viewBox="0 0 429 292" fill="none" xmlns="http://www.w3.org/2000/svg">
<path d="M172.714 259.5C180.738 234.86 193.926 193.096 197.68 175.5C197.696 175.426 197.74 175.367 197.804 175.327C214.161 165.152 231.855 159.617 237.806 158.513C237.879 158.5 237.949 158.518 238.01 158.56C253.167 169.156 262.544 175.632 268.341 181.146C283.081 195.167 285.887 222.053 285.63 239.553C285.63 239.652 285.574 239.741 285.488 239.789L279.411 243.146C279.262 243.228 279.076 243.158 279.015 242.999C274.055 229.666 264.804 219.143 258.751 200.021C258.755 200.176 258.623 200.313 258.459 200.308C242.012 199.888 241.352 198.941 226.51 194.406C217.654 222.655 192.362 250.53 179.816 262.52C179.736 262.595 179.624 262.613 179.523 262.571L172.874 259.837C172.74 259.782 172.669 259.637 172.714 259.5Z" fill="black"/>
<path d="M217.432 96.2816C218.817 94.2043 233.876 88.6667 228.294 69.088C233.157 66.92 233.964 61.7481 229.494 61.7501C224.626 61.531 223.209 57.6703 222.912 55.1478C222.721 51.7484 221.4 48.6952 220.865 48.1755" stroke="black" stroke-width="2" stroke-linecap="round"/>
<path d="M221.195 64.2227C221.837 63.9365 222.01 62.9242 221.58 61.9616C221.151 60.9989 220.283 60.4505 219.641 60.7366C219 61.0227 218.827 62.035 219.256 62.9977C219.685 63.9603 220.554 64.5088 221.195 64.2227Z" fill="black"/>
<path d="M215.521 59.658C215.931 58.424 217.438 56.2023 220.181 57.1862" stroke="black" stroke-width="2" stroke-linecap="round"/>
<path d="M217.765 78.9767C220.298 80.5769 222.224 80.4761 224.71 77.5486" stroke="black" stroke-width="2" stroke-linecap="round"/>
<path d="M198.265 68.564C198.268 69.4766 198.768 71.3222 200.741 71.4028" stroke="black" stroke-width="2" stroke-linecap="round"/>
<path d="M177.676 68.6446C180.53 79.8063 189.983 84.8486 196.992 88.8435C200.418 84.2835 205.197 74.9895 202.04 75.6756C198.722 76.3963 191.767 69.6415 193.536 65.7828C195.611 61.2555 200.757 64.2943 202.902 67.4062L203.468 61.3546C201.149 58.3706 198.145 52.6467 204.684 53.6225C211.223 54.5984 218.201 50.3455 220.872 48.0972C224.918 41.0069 229.656 26.629 216.248 25.8394C205.096 25.1827 196.22 36.5801 191.601 45.277C186.2 46.2209 173.785 53.4262 177.676 68.6446Z" fill="black"/>
<path d="M197.01 88.0005C200.393 89.62 202.475 91.2988 204.414 95.8691" stroke="black" stroke-width="2" stroke-linecap="round"/>
<path d="M200.334 128.715C201.382 136.099 202.034 155.738 196.401 175.854C196.33 176.108 196.618 176.317 196.834 176.166C202.862 171.944 218.612 163.096 238.876 157.86C239.01 157.825 239.1 157.702 239.084 157.564C237.766 146.417 237.057 122.984 243.491 116.855C243.526 116.821 243.567 116.8 243.614 116.789C256.882 113.726 285.036 103.968 293.246 88.7251C293.257 88.7023 293.265 88.6791 293.271 88.6539C293.861 85.8981 294.265 80.2706 291.277 79.3017C291.218 79.2826 291.155 79.2859 291.097 79.3092C271.5 87.2335 249.659 93.7972 221.587 98.7755" stroke="black" stroke-width="2" stroke-linecap="round"/>
<path d="M200.335 138.133C186.929 152.758 174.454 158.327 164.944 162.482C158.3 165.869 143.893 168.299 150.339 157.799C178.037 123.231 184.131 117.22 190.64 111.265C194.379 107.845 196.041 105.726 205.459 103.233" stroke="black" stroke-width="2" stroke-linecap="round"/>
<path d="M161.556 269.978C161.002 266.377 171.759 261.115 173.605 260.145L179.283 262.361C178.84 265.131 177.437 266.747 176.791 267.208L161.556 269.978Z" stroke="black" stroke-width="2"/>
<path d="M282.045 247.82C279.829 247.377 279.737 244.219 279.967 242.696L284.953 240.203C286.477 240.619 290.548 241.699 294.648 242.696C298.747 243.693 298.201 245.05 297.417 245.604L282.045 247.82Z" stroke="black" stroke-width="2"/>
<path d="M253.273 274.689C253.273 284.25 245.522 292 235.961 292C226.4 292 218.65 284.25 218.65 274.689C218.65 265.128 226.4 257.377 235.961 257.377C245.522 257.377 253.273 265.128 253.273 274.689Z" fill="black"/>
<path d="M134.688 276.765L336.888 239.649" stroke="black" stroke-width="2" stroke-linecap="round"/>
<path d="M312.236 43.9578H300.603C299.455 43.9578 298.525 44.8878 298.525 46.0352V54.6217C298.525 55.769 299.455 56.6991 300.603 56.6991H312.236C313.384 56.6991 314.314 55.769 314.314 54.6217V46.0352C314.314 44.8878 313.384 43.9578 312.236 43.9578Z" stroke="black" stroke-width="2"/>
<path d="M331.902 40.635H324.147C322.999 40.635 322.069 41.5651 322.069 42.7124V53.7918C322.069 54.9392 322.999 55.8692 324.147 55.8692H331.902C333.05 55.8692 333.98 54.9392 333.98 53.7918V42.7124C333.98 41.5651 333.05 40.635 331.902 40.635Z" stroke="black" stroke-width="2"/>
<path d="M351.568 33.7112H344.089C342.942 33.7112 342.012 34.6413 342.012 35.7886V53.7927C342.012 54.94 342.942 55.8701 344.089 55.8701H351.568C352.715 55.8701 353.645 54.94 353.645 53.7927V35.7886C353.645 34.6413 352.715 33.7112 351.568 33.7112Z" stroke="black" stroke-width="2"/>
<path d="M371.789 26.6479H364.033C362.503 26.6479 361.263 27.8881 361.263 29.4178V53.7926C361.263 55.3223 362.503 56.5624 364.033 56.5624H371.789C373.318 56.5624 374.559 55.3223 374.559 53.7926V29.4178C374.559 27.8881 373.318 26.6479 371.789 26.6479Z" fill="black"/>
<path d="M392.285 39.5266H384.806C383.659 39.5266 382.729 40.4567 382.729 41.604V53.7914C382.729 54.9387 383.659 55.8688 384.806 55.8688H392.285C393.432 55.8688 394.362 54.9387 394.362 53.7914V41.604C394.362 40.4567 393.432 39.5266 392.285 39.5266Z" stroke="black" stroke-width="2"/>
<path d="M413.059 46.4502H405.304C404.156 46.4502 403.226 47.3803 403.226 48.5276V53.7903C403.226 54.9376 404.156 55.8677 405.304 55.8677H413.059C414.207 55.8677 415.137 54.9376 415.137 53.7903V48.5276C415.137 47.3803 414.207 46.4502 413.059 46.4502Z" stroke="black" stroke-width="2"/>
<path d="M368.052 22.8414C367.83 23.0963 367.437 23.0963 367.215 22.8414L364.827 20.0865C364.517 19.7277 364.772 19.1697 365.246 19.1697H370.021C370.495 19.1697 370.749 19.7277 370.439 20.0865L368.052 22.8414Z" fill="black"/>
<path fill-rule="evenodd" clip-rule="evenodd" d="M354.615 0.333008H381.482C383.012 0.333008 384.252 1.57312 384.252 3.10287V18.0601C384.252 19.5899 383.012 20.83 381.482 20.83H354.615C353.085 20.83 351.845 19.5899 351.845 18.0601V3.10287C351.845 1.57312 353.085 0.333008 354.615 0.333008ZM361.817 9.74975H379.544C380.156 9.74975 380.652 10.2458 380.652 10.8577C380.652 11.4696 380.156 11.9656 379.544 11.9656H361.817C361.205 11.9656 360.709 11.4696 360.709 10.8577C360.709 10.2458 361.205 9.74975 361.817 9.74975ZM356.554 11.0286C356.647 11.0286 356.723 10.9529 356.723 10.8595C356.723 10.7662 356.647 10.6905 356.554 10.6905C356.461 10.6905 356.385 10.7662 356.385 10.8595C356.385 10.9529 356.461 11.0286 356.554 11.0286ZM354.723 10.8595C354.723 9.8483 355.543 9.02856 356.554 9.02856C357.565 9.02856 358.385 9.8483 358.385 10.8595C358.385 11.8707 357.565 12.6905 356.554 12.6905C355.543 12.6905 354.723 11.8707 354.723 10.8595ZM361.817 15.0137H369.019C369.63 15.0137 370.127 15.5098 370.127 16.1217C370.127 16.7336 369.63 17.2296 369.019 17.2296H361.817C361.205 17.2296 360.709 16.7336 360.709 16.1217C360.709 15.5098 361.205 15.0137 361.817 15.0137ZM363.756 4.20952H356.554C355.942 4.20952 355.446 4.70557 355.446 5.31747C355.446 5.92937 355.942 6.42541 356.554 6.42541H363.756C364.368 6.42541 364.864 5.92937 364.864 5.31747C364.864 4.70557 364.368 4.20952 363.756 4.20952ZM356.554 15.0137C357.166 15.0137 357.662 15.5098 357.662 16.1217C357.662 16.7336 357.166 17.2296 356.554 17.2296C355.942 17.2296 355.446 16.7336 355.446 16.1217C355.446 15.5098 355.942 15.0137 356.554 15.0137Z" fill="black"/>
<path d="M54.3512 214.987C58.7043 212.749 63.6698 211.996 68.4911 212.842C73.312 213.689 77.7238 216.089 81.054 219.676C84.3842 223.264 86.4497 227.842 86.9358 232.712C87.4217 237.583 86.3015 242.479 83.7461 246.654C81.1906 250.828 77.3399 254.053 72.781 255.835C68.2224 257.618 63.2059 257.861 58.4963 256.527C53.7867 255.193 49.6427 252.355 46.6959 248.447C43.7493 244.538 42.1616 239.773 42.1749 234.879L64.6108 234.94L54.3512 214.987Z" stroke="black" stroke-width="2"/>
<path d="M38.0203 232.447C38.0203 228.395 39.1451 224.423 41.2696 220.973C43.3941 217.523 46.4348 214.73 50.0528 212.907L59.9022 232.447H38.0203Z" fill="black"/>
<path d="M316.341 79.0271C316.657 79.7625 316.773 81.3876 314.959 82.3731C314.826 82.4462 314.679 82.5157 314.524 82.5811C312.255 83.5287 311.69 81.9706 311.69 81.0732V80.1589" stroke="black" stroke-width="2" stroke-linecap="round"/>
<path d="M316.047 76.7649C316.656 77.1325 317.49 78.0656 316.341 79.0265C316.255 79.0982 316.158 79.17 316.047 79.242C314.72 80.1159 312.834 80.2305 311.69 80.1583C311.48 80.145 311.297 80.1256 311.144 80.1034C310.527 79.9308 309.532 79.2605 310.491 77.9601" stroke="black" stroke-width="2" stroke-linecap="round"/>
<path d="M315.613 74.0725C316.23 74.216 317.291 74.7833 316.593 75.9034C315.895 77.0232 312.38 77.734 310.71 77.9495C310.638 77.9567 310.566 77.9603 310.491 77.96C309.832 77.9575 309.184 77.6379 309.184 76.7648C309.184 75.5314 310.782 75.1134 311.145 75.0417" stroke="black" stroke-width="2" stroke-linecap="round"/>
<path d="M311.959 70.4086C312.577 70.6599 312.953 71.5714 311.472 72.3467C309.99 73.122 310.347 74.1776 310.71 74.6083C311.291 75.1107 313.172 75.4913 316.047 72.9929C318.925 70.4945 314.413 68.9364 311.69 68.4697" stroke="black" stroke-width="2" stroke-linecap="round"/>
<path d="M305.589 72.9948C306.824 72.0256 309.228 70.6687 308.968 72.9948C308.705 75.3209 307.043 76.3333 306.242 76.5488" stroke="black" stroke-width="2" stroke-linecap="round"/>
<path d="M305.589 82.3226C306.312 81.7007 307.544 79.6665 306.674 76.5059" stroke="black" stroke-width="2" stroke-linecap="round"/>
<path d="M306.117 72.24L304.757 64.8716" stroke="black" stroke-width="2" stroke-linecap="round"/>
<path d="M310.989 63.6243L311.917 71.1563" stroke="black" stroke-width="2" stroke-linecap="round"/>
<path d="M313.122 82.8489C313.122 84.9058 314.108 87.6123 311.917 88.2618C309.244 89.0548 308.961 86.6378 308.416 84.148L306.992 76.6782" stroke="black" stroke-width="2" stroke-linecap="round"/>
<path d="M305.311 69.4421C303.788 69.7191 300.215 71.2702 298.11 75.2588C296.005 79.2474 294.002 80.5216 293.262 80.6601" stroke="black" stroke-width="2" stroke-linecap="round"/>
<path d="M293.678 87.5845C297.556 88 305.561 87.8338 308.22 84.9531" stroke="black" stroke-width="2" stroke-linecap="round"/>
<path d="M305.45 64.7328C312.793 64.7328 318.746 58.7802 318.746 51.4374C318.746 44.0946 312.793 38.1421 305.45 38.1421C298.108 38.1421 292.155 44.0946 292.155 51.4374C292.155 58.7802 298.108 64.7328 305.45 64.7328Z" stroke="black" stroke-width="2"/>
<path d="M428 77.2108C422.687 78.3008 425.177 85.616 421.286 87.5624C416.638 89.886 415.037 76.8039 415.641 71.2512C415.815 68.8165 418.649 67.7338 419.031 71.2512C419.438 74.9877 414.801 89.4766 409.489 83.8856L405.943 79.781C404.957 78.5664 403.016 76.8787 401.373 79.781C399.731 82.683 397.113 81.724 396.011 80.8817L392.546 78.3603" stroke="black" stroke-width="2" stroke-linecap="round"/>
<path d="M395.031 67.1845L367.448 62.5123C367.177 62.4661 367.011 62.8057 367.218 62.9913L379.993 74.497C380.015 74.5153 380.035 74.5305 380.062 74.5405C381.192 74.985 385.53 73.276 387.84 72.2423C387.995 72.1725 388.175 72.2578 388.222 72.4218C388.754 74.2848 389.397 76.0071 389.726 76.8281C389.776 76.9489 389.909 77.0156 389.998 76.9195C390.615 76.2381 390.701 72.7697 390.657 70.779C390.654 70.6369 390.757 70.5164 390.898 70.489C392.596 70.1574 394.892 68.6659 395.87 67.928" stroke="black" stroke-width="2" stroke-linecap="round"/>
<path d="M388.114 72.0453C385.172 70.6911 377.73 67.2997 371.495 64.5667" stroke="black" stroke-width="2" stroke-linecap="round"/>
<path d="M389.775 77.0323L384.236 73.7085" stroke="black" stroke-width="2" stroke-linecap="round"/>
<path d="M388.667 69.2755L381.188 67.0596" stroke="black" stroke-width="2" stroke-linecap="round"/>
<path d="M201.644 104.453C199.659 102.145 196.88 97.2791 201.644 96.282C207.599 95.0356 221.033 95.3125 221.587 98.6364" stroke="black" stroke-width="2" stroke-linecap="round"/>
<path d="M137.851 177.316C138.929 177.898 142.176 178.12 146.549 174.348C150.922 170.576 151.879 167.214 151.81 166.004" stroke="black" stroke-width="2" stroke-linecap="round"/>
<path d="M132.44 177.225C132.317 178.266 133.009 179.862 136.753 177.918L137.851 177.316L139.761 176.269" stroke="black" stroke-width="2" stroke-linecap="round"/>
<path d="M131.465 173.999C130.585 174.516 129.168 175.85 130.537 177.054C130.95 177.418 131.632 177.428 132.44 177.224C134.307 176.751 136.841 175.133 138.234 174.093" stroke="black" stroke-width="2" stroke-linecap="round"/>
<path d="M147.787 160.897C145.722 160.139 141.457 158.659 138.623 159.644C137.912 159.911 136.299 160.279 135.541 159.614C134.593 158.783 132.795 160.915 135.239 162.34C137.683 163.766 139.275 162.255 138.952 164.518C138.693 166.329 133.677 169.268 131.202 170.511C130.313 170.914 128.844 172.081 130.082 173.531C130.389 173.89 130.876 174.022 131.465 173.998C133.254 173.924 135.983 172.407 137.44 171.424" stroke="black" stroke-width="2" stroke-linecap="round"/>
<path d="M75.2317 61.2288C82.5316 68.7005 96.094 71.9931 103.243 72.8919C103.748 72.9556 103.926 73.6126 103.516 73.9151L84.7068 87.7885C84.6456 87.8336 84.575 87.866 84.5007 87.8826C70.5744 90.9907 57.5907 77.1273 52.4388 69.2515C52.2424 68.9515 52.3886 68.5532 52.7288 68.4391L74.6517 61.087C74.8561 61.0183 75.0807 61.0746 75.2317 61.2288Z" stroke="black" stroke-width="2" stroke-linecap="round"/>
<path d="M64.4613 72.6074C66.6772 72.1471 71.4967 70.714 73.0479 68.6626" stroke="black" stroke-width="2" stroke-linecap="round"/>
<path d="M70.6941 77.5914C72.079 77.6373 75.2644 76.9543 76.9263 73.8521" stroke="black" stroke-width="2" stroke-linecap="round"/>
<path d="M77.4801 80.9161C79.5575 80.6392 84.017 79.0603 85.2357 74.9609" stroke="black" stroke-width="2" stroke-linecap="round"/>
<path d="M28.5113 119.119C21.2112 126.591 7.64883 129.883 0.5001 130.782C-0.00512255 130.846 -0.182936 131.503 0.227003 131.805L19.036 145.679C19.0972 145.724 19.1679 145.756 19.2421 145.773C33.1685 148.881 46.1522 135.017 51.3042 127.142C51.5006 126.842 51.3543 126.443 51.0142 126.329L29.0913 118.977C28.8869 118.908 28.6622 118.965 28.5113 119.119Z" stroke="black" stroke-width="2" stroke-linecap="round"/>
<path d="M39.2813 130.497C37.0654 130.037 32.2458 128.604 30.6947 126.552" stroke="black" stroke-width="2" stroke-linecap="round"/>
<path d="M33.0493 135.482C31.6644 135.528 28.4791 134.845 26.8171 131.743" stroke="black" stroke-width="2" stroke-linecap="round"/>
<path d="M26.2627 138.807C24.1853 138.53 19.7258 136.951 18.5071 132.852" stroke="black" stroke-width="2" stroke-linecap="round"/>
</svg>
