<svg width="169" height="201" viewBox="0 0 169 201" fill="none" xmlns="http://www.w3.org/2000/svg">
<path d="M65.5774 172.024C64.8366 167.714 62.5114 164.824 59.3341 160.877C55.3624 155.943 46.9771 144.567 50.3671 132.404C53.0792 122.673 58.3541 115.504 60.6526 113.136" stroke="white" stroke-width="2" stroke-linecap="round"/>
<path d="M81.1553 163.101C80.7279 161.296 81.3054 152.082 78.1929 147.827C77.2656 146.64 75.7321 143.574 77.6169 140.471" stroke="white" stroke-width="2" stroke-linecap="round"/>
<path d="M61.5425 133.918C61.7101 129.296 64.8872 121.61 68.9638 118.342C73.0404 115.074 75.1501 117.908 75.2972 119.531C75.5178 121.964 74.8302 125.176 73.3401 131.394C71.8639 137.555 74.027 146.219 75.7967 149.939" stroke="white" stroke-width="2" stroke-linecap="round"/>
<path d="M129.056 80.1681C124.741 79.2994 115.015 78.9324 110.628 84.4141C110.228 84.9077 109.7 86.4729 110.779 88.7849" stroke="white" stroke-width="2" stroke-linecap="round"/>
<path d="M135.026 105.166C125.721 101.911 119.57 98.6623 116.709 91.7978C115.115 87.9718 116.354 85.3317 119.253 86.0645C123.1 87.0371 126.727 88.9433 130.136 88.6097C130.812 88.5589 132.795 88.1048 135.313 86.6945" stroke="white" stroke-width="2" stroke-linecap="round"/>
<path d="M164.012 107.844C163.124 106.901 160.59 103.712 159.353 100.732C157.808 97.0076 150.048 84.027 142.159 83.4502" stroke="white" stroke-width="2" stroke-linecap="round"/>
<path d="M143.693 73.5335L106.991 90.7529C106.789 90.8476 106.599 90.9788 106.443 91.1379C102.343 95.3171 105.707 97.0165 108.401 97.588C108.782 97.6688 109.177 97.6127 109.532 97.454L117.651 93.8295" stroke="white" stroke-width="2" stroke-linecap="round"/>
<path d="M147.573 80.8119L135.293 86.6699" stroke="white" stroke-width="2" stroke-linecap="round"/>
<path d="M147.766 75.9618C148.346 76.9985 148.546 78.0725 148.444 78.9469C148.342 79.8228 147.956 80.419 147.436 80.71C146.917 81.001 146.207 81.0188 145.406 80.6484C144.607 80.2786 143.796 79.5469 143.216 78.5102C142.635 77.4734 142.435 76.3994 142.537 75.525C142.639 74.6491 143.025 74.053 143.545 73.762C144.064 73.471 144.774 73.4531 145.575 73.8235C146.374 74.1933 147.185 74.9251 147.766 75.9618Z" fill="black" stroke="white" stroke-width="2"/>
<path d="M142.63 82.108C139.581 80.4131 139.583 77.6658 140.129 76.0102C140.266 75.5966 140.592 75.2842 140.982 75.0892L143.071 74.0432C144.058 73.5494 145.257 73.9475 145.753 74.9329L147.505 78.4162C148.023 79.4459 147.566 80.6991 146.506 81.1531L144.188 82.1466C143.685 82.3623 143.108 82.3739 142.63 82.108Z" fill="black" stroke="white" stroke-width="2" stroke-linecap="round"/>
<path d="M105.074 95.3644C105.421 96.188 104.806 97.0961 103.912 97.0797C102.841 97.06 102.301 95.7803 103.033 94.9988C103.645 94.3457 104.727 94.5395 105.074 95.3644Z" fill="black" stroke="white" stroke-width="2"/>
<path d="M66.3287 120.607L42.7212 81.8237C39.4487 75.9812 34.99 65.471 47.2211 58.8359C59.4523 52.2008 65.9879 48.4146 67.7267 47.3509" stroke="white" stroke-width="2" stroke-linecap="round"/>
<path d="M81.6707 39.5415L102.074 28.1139C107.77 25.0581 113.967 24.8191 119.248 34.2491C124.53 43.679 135.292 63.5486 140.642 74.0624" stroke="white" stroke-width="2" stroke-linecap="round"/>
<path d="M150.922 132.493C142.86 137.817 121.293 152.048 108.051 160.228C102.309 163.444 94.288 166.967 87.5989 157.141L73.1482 132.783" stroke="white" stroke-width="2" stroke-linecap="round"/>
<circle cx="72.0086" cy="38.8462" r="4.32537" transform="rotate(-29.2527 72.0086 38.8462)" stroke="white" stroke-width="2"/>
<path d="M67.0722 44.9436C68.9994 46.6594 68.8283 48.7978 66.7651 50.6253C65.7784 51.4993 64.2171 52.4018 61.7891 55.1593C58.7541 58.6061 60.1588 62.7915 61.8901 66.1221C63.2751 68.7866 65.2683 68.799 67.9816 67.4137C75.6925 63.0501 92.3825 54.0158 96.8026 51.5402C101.4 48.9654 101.094 46.852 100.613 45.6434C98.2315 39.6667 95.0206 38.5344 92.8375 38.7101C91.8101 38.7927 88.8964 39.1974 85.46 40.1545C82.0236 41.1117 80.9176 40.4141 80.4148 38.8143C79.1795 34.8835 77.15 32.2664 76.2897 31.4492C75.1853 30.276 71.7375 28.7848 66.7821 32.2053C60.5877 36.481 64.6631 42.7989 67.0722 44.9436Z" stroke="white" stroke-width="2" stroke-linecap="round"/>
<path d="M132.428 77.6774L111.579 39.5401C111.121 38.7215 109.855 37.5487 107.965 38.6074C106.02 39.6965 101.692 42.2105 99.6748 43.2505" stroke="white" stroke-width="2" stroke-linecap="round"/>
<path d="M60.6817 65.0905L51.266 70.3641C50.1853 70.835 48.5527 72.5291 50.6683 75.5382C52.7839 78.5473 82.0939 127.165 96.4845 151.098C97.1381 152.345 99.0365 154.455 101.401 152.915C103.2 151.744 131.361 133.82 148.337 123.307" stroke="white" stroke-width="2" stroke-linecap="round"/>
<path d="M135.528 76.5328L114.971 38.5656C114.34 37.4378 112.93 36.0725 110.375 38.0419" stroke="white" stroke-width="2" stroke-linecap="round"/>
<path d="M49.6113 71.6715C48.5878 72.2448 46.2338 73.5632 47.829 76.1717C49.3621 78.6785 64.9808 104.394 72.1023 116.389" stroke="white" stroke-width="2" stroke-linecap="round"/>
<path d="M75.4023 122.281L94.2401 153.754C94.9741 154.824 96.3023 156.235 100.985 153.073" stroke="white" stroke-width="2" stroke-linecap="round"/>
<path d="M69.2595 83.5054L88.444 72.7603" stroke="white" stroke-width="2" stroke-linecap="round"/>
<path d="M73.1997 90.2393L114.503 66.8363" stroke="white" stroke-width="2" stroke-linecap="round"/>
<path d="M77.1499 97.0513L109.477 78.5414" stroke="white" stroke-width="2" stroke-linecap="round"/>
<path d="M83.4371 107.545L99.0202 97.8662" stroke="white" stroke-width="2" stroke-linecap="round"/>
<path d="M137.147 76.6101C137.181 78.4287 136.596 81.2506 140.409 83.8404" stroke="white" stroke-width="2" stroke-linecap="round"/>
<path d="M122.65 106.623C122.317 108.372 123.661 112.084 131.699 112.937C135.583 113.19 144.633 115.498 149.77 122.702" stroke="white" stroke-width="2" stroke-linecap="round"/>
<path d="M114.419 95.4427C114.446 96.7468 115.294 98.811 118 99.7269C119.334 100.178 121.118 100.351 123.479 100.017" stroke="white" stroke-width="2" stroke-linecap="round"/>
<path d="M118 99.7265C117.797 101.876 118.6 105.602 122.65 106.622C123.699 106.887 126.65 106.814 128.173 106.641" stroke="white" stroke-width="2" stroke-linecap="round"/>
<path d="M170.887 145.335C163.52 139.682 150.017 126.072 154.937 116.858C161.088 105.34 181.335 112.312 192.397 121.867" stroke="white" stroke-width="2" stroke-linecap="round"/>
<path d="M69.8503 194.242C66.6822 186.828 63.9025 169.631 73.7826 166.46C83.6628 163.289 95.063 177.972 99.5281 185.71" stroke="white" stroke-width="2" stroke-linecap="round"/>
</svg>
