<svg width="423" height="402" viewBox="0 0 423 402" fill="none" xmlns="http://www.w3.org/2000/svg">
<path d="M18.2548 184.574C20.6146 184.574 22.5276 182.661 22.5276 180.301C22.5276 177.941 20.6146 176.028 18.2548 176.028C15.8949 176.028 13.9819 177.941 13.9819 180.301C13.9819 182.661 15.8949 184.574 18.2548 184.574Z" stroke="black" stroke-width="2"/>
<path d="M26.6294 180.736C35.2478 179.849 48.7709 180.898 50.3693 187.565C51.9677 194.231 45.8641 196.669 42.6127 197.055C30.2336 199.023 13.8193 198.097 13.8193 187.565" stroke="black" stroke-width="2" stroke-linecap="round"/>
<path d="M23.5156 190.818C24.0601 190.818 24.5016 190.376 24.5016 189.831C24.5016 189.287 24.0601 188.845 23.5156 188.845C22.971 188.845 22.5295 189.287 22.5295 189.831C22.5295 190.376 22.971 190.818 23.5156 190.818Z" stroke="black" stroke-width="2"/>
<path d="M33.0461 189.831C33.0461 190.31 32.5998 190.818 31.8957 190.818C31.1916 190.818 30.7454 190.31 30.7454 189.831C30.7454 189.353 31.1916 188.845 31.8957 188.845C32.5998 188.845 33.0461 189.353 33.0461 189.831Z" stroke="black" stroke-width="2"/>
<path d="M40.2773 190.818C40.8219 190.818 41.2633 190.376 41.2633 189.831C41.2633 189.287 40.8219 188.845 40.2773 188.845C39.7327 188.845 39.2913 189.287 39.2913 189.831C39.2913 190.376 39.7327 190.818 40.2773 190.818Z" stroke="black" stroke-width="2"/>
<path d="M342.497 64.2763C344.675 64.2763 346.441 62.5105 346.441 60.3322C346.441 58.1539 344.675 56.3881 342.497 56.3881C340.319 56.3881 338.553 58.1539 338.553 60.3322C338.553 62.5105 340.319 64.2763 342.497 64.2763Z" stroke="black" stroke-width="2"/>
<path d="M350.245 56.8849C353.135 56.8849 361.394 56.8849 365.279 56.8849C368.426 56.8849 369.94 57.581 369.94 62.4533C369.94 67.1873 369.902 73.3195 369.94 75.7944C369.968 77.5344 369.101 79.4602 366.211 79.7385C363.321 80.0169 351.721 79.8546 346.283 79.7385C344.263 79.7385 340.689 78.5934 340.689 73.938V68.7176" stroke="black" stroke-width="2" stroke-linecap="round"/>
<path d="M348.248 65.098L355.479 70.0282" stroke="black" stroke-width="2" stroke-linecap="round"/>
<path d="M355.48 70.0295L368.628 57.8684" stroke="black" stroke-width="2" stroke-linecap="round"/>
<path d="M358.812 67.0702L362.405 70.6857L365.997 74.3011" stroke="black" stroke-width="2" stroke-linecap="round"/>
<path d="M345.619 74.3011L350.92 67.0702" stroke="black" stroke-width="2" stroke-linecap="round"/>
<path d="M371.402 310.781C370.309 311.875 369.368 312.818 368.719 313.467C367.028 315.161 365.252 314.173 364.575 313.467L353.786 303.072C352.193 301.591 350.847 300.129 344.827 294.386C344.21 293.769 343.234 292.193 344.258 290.826C345.281 289.459 351.037 282.282 353.786 278.864C354.62 277.656 356.433 276.219 358.744 278.368C360.736 280.219 367.562 286.627 373.393 291.499" stroke="black" stroke-width="2" stroke-linecap="round"/>
<path d="M353.672 279.233C354.011 285.468 356.299 295.505 368.133 299.283" stroke="black" stroke-width="2" stroke-linecap="round"/>
<path d="M383.682 299.766C383.14 298.388 378.976 296.782 377.401 299.766C375.78 302.844 377.02 305.437 378.075 305.946C379.423 306.595 381.401 306.935 383.492 303.198" stroke="black" stroke-width="2" stroke-linecap="round"/>
<path d="M384.027 297.848C383.906 298.568 383.781 298.871 383.682 299.767C383.554 300.934 383.472 302.158 383.492 303.199C383.531 305.025 383.893 306.285 384.918 305.677C386.976 304.457 388.087 303.456 388.382 302.436C388.875 300.72 388.879 297.435 386.105 295.287C382.759 292.693 378.985 292.764 376.018 295.287C373.071 297.791 372.265 301.799 372.426 303.879C372.603 306.153 374.3 311.039 379.84 311.116C385.378 311.192 388.379 308.206 388.839 306.808" stroke="black" stroke-width="2" stroke-linecap="round"/>
<path d="M92.0441 258.713C90.8625 254.151 86.9388 245.738 80.6991 248.582C74.4592 251.426 78.0989 256.521 80.6991 258.713C82.4487 259.898 86.2101 261.166 87.2579 256.758C88.3057 252.35 83.8899 250.537 82.6488 252.492C81.9944 253.263 81.2552 255.194 83.5353 256.758" stroke="black" stroke-width="2" stroke-linecap="round"/>
<path d="M119.891 37.4779C119.601 35.8457 121.309 34.59 122.781 35.3529L125.724 36.8789C126.893 37.4849 128.285 37.4769 129.447 36.8576L132.372 35.298C133.835 34.5183 135.557 35.7543 135.286 37.3897L134.744 40.6605C134.529 41.9594 134.967 43.2809 135.915 44.1944L138.302 46.495C139.496 47.6452 138.853 49.6649 137.214 49.9126L133.935 50.4082C132.634 50.6049 131.512 51.4296 130.936 52.6135L129.486 55.5949C128.761 57.0856 126.641 57.0977 125.899 55.6154L124.415 52.6509C123.825 51.4737 122.695 50.6618 121.391 50.48L118.107 50.022C116.465 49.7931 115.799 47.7809 116.979 46.6171L119.34 44.2893C120.277 43.365 120.7 42.0386 120.47 40.7423L119.891 37.4779Z" stroke="black" stroke-width="2"/>
<path d="M221.379 184.546V212.483" stroke="black" stroke-width="2" stroke-linecap="round"/>
<path d="M242.415 187.832V214.455" stroke="black" stroke-width="2" stroke-linecap="round"/>
<path d="M193.214 308.817C186.268 309.682 170.007 312.871 166.445 319.358C165.377 321.304 164.137 326.039 167.728 329.412C171.318 332.785 177.88 331.898 180.711 331.034L197.221 324.385" stroke="black" stroke-width="2" stroke-linecap="round"/>
<path d="M287.87 259.866C274.909 260.283 217.666 287.996 190.665 301.8C188.365 317.012 198.068 327.934 203.207 331.493C230.122 323.679 285.361 307.843 291.005 307.01C296.65 306.176 302.241 302.148 304.332 300.238C318.965 283.152 308.164 268.635 300.935 263.513C295.788 259.866 291.345 259.754 287.87 259.866Z" fill="black"/>
<path d="M166.467 255.989C175.65 256.602 215.709 272.127 234.69 280.264L191.281 301.956C171.855 307.653 159.92 305.776 156.276 304.548C135.238 294.412 143.481 269.407 151.839 260.145C157.227 255.56 163.177 255.77 166.467 255.989Z" fill="black"/>
<path d="M268.671 311.772C274.411 314.53 277.514 318.143 279.087 321.107C282.459 328.824 276.404 333.463 269.492 331.282C265.672 330.076 264.772 329.269 262.748 327.591C261.722 326.739 256.927 322.284 251.453 317.022" stroke="black" stroke-width="2" stroke-linecap="round"/>
<path d="M158.845 187.064L162.518 253.813C162.81 259.114 167.194 263.263 172.503 263.263H282.373C287.896 263.263 292.373 258.786 292.373 253.263V184.984C292.373 179.409 287.813 174.91 282.238 174.985L168.695 176.516C163.01 176.592 158.533 181.387 158.845 187.064Z" fill="black"/>
<rect x="162.216" y="264.414" width="130.157" height="6.24488" rx="3.12244" fill="black"/>
<path d="M242.743 140.174C254.192 140.01 279.391 148.719 289.415 176.164" stroke="black" stroke-width="2" stroke-linecap="round"/>
<path d="M217.599 140.011C191.469 145.106 178.979 156.281 169.119 177.809" stroke="black" stroke-width="2" stroke-linecap="round"/>
<path d="M305.027 166.005L311.437 155.323" stroke="black" stroke-width="2" stroke-linecap="round"/>
<path d="M311.436 168.962L320.146 161.731" stroke="black" stroke-width="2" stroke-linecap="round"/>
<path d="M312.751 173.893C314.45 174.55 318.306 175.175 320.147 172.414" stroke="black" stroke-width="2" stroke-linecap="round"/>
<path d="M144.633 164.006L134.773 153.817" stroke="black" stroke-width="2" stroke-linecap="round"/>
<path d="M154.657 162.359L148.74 147.075" stroke="black" stroke-width="2" stroke-linecap="round"/>
<path d="M142.168 169.757L134.773 166.963" stroke="black" stroke-width="2" stroke-linecap="round"/>
<path d="M295.989 194.601C302.07 204.132 308.972 215.472 295.989 236.808" stroke="black" stroke-width="2" stroke-linecap="round"/>
<path d="M242.907 140.996C244.386 136.723 243.039 133.848 241.724 133.3C233.836 140.531 221.872 137.847 217.434 133.465C215.857 134.911 216.777 139.188 217.434 140.503C225.98 149.969 238.141 144.666 242.907 140.996Z" fill="black"/>
<path d="M207.903 167.29L208.566 166.273C212.287 160.562 219.528 158.282 225.85 160.831V160.831C231.526 163.12 238.03 161.532 242.013 156.885L247.18 150.856" stroke="black" stroke-width="2" stroke-linecap="round"/>
<path d="M156.465 200.649C154 206.456 151.074 220.534 159.094 230.394" stroke="black" stroke-width="2" stroke-linecap="round"/>
<path d="M265.567 73.816C261.952 86.7988 260.144 87.9491 254.885 93.701C254.885 88.0165 253.909 78.4751 253.909 74.5021C236.689 74.5021 222.157 67.4729 217.044 63.9583C217.227 75.8774 206.053 83.6706 206.053 83.6706C206.053 83.6706 207.656 88.4841 208.572 99.2571C209.304 107.876 207.198 106.21 206.053 104.3C202.756 93.6643 197.352 96.5066 195.062 99.2571C166.964 53.6023 210.174 44.7808 218.417 45.6212C224.646 40.3035 233.331 36.1362 239.437 35.525C261.459 33.3206 271.43 52.7648 265.567 73.816Z" fill="black"/>
<path d="M206.438 112.426C209.396 130.485 229.251 143.471 243.579 128.842C257.907 114.213 255.039 87.4345 253.509 74.9387" stroke="black" stroke-width="2" stroke-linecap="round"/>
<path d="M194.737 98.1384C192.93 102.576 194.626 112.408 206.438 112.408" stroke="black" stroke-width="2" stroke-linecap="round"/>
<path d="M199.948 100.577C199.686 101.526 199.895 103.776 202.823 105.178" stroke="black" stroke-width="2" stroke-linecap="round"/>
<path d="M253.11 110.109C256.966 108.502 259.684 102.549 258.638 93.0177" stroke="black" stroke-width="2" stroke-linecap="round"/>
<path d="M231.418 120.955C235.198 121.941 234.958 119.228 237.827 116.847" stroke="black" stroke-width="2" stroke-linecap="round"/>
<ellipse cx="242.701" cy="97.9938" rx="2.46509" ry="2.46509" fill="black"/>
<ellipse cx="221.008" cy="98.3228" rx="2.46509" ry="2.46509" fill="black"/>
<path d="M215.641 92.6883C216.159 91.161 218.398 88.3354 223.2 89.2518" stroke="black" stroke-width="2" stroke-linecap="round"/>
<path d="M238.648 89.7285C239.794 88.7364 242.909 87.3475 246.208 89.7285" stroke="black" stroke-width="2" stroke-linecap="round"/>
<path d="M230.697 96.6324C230.314 99.8778 230.053 106.459 232.075 106.821" stroke="black" stroke-width="2" stroke-linecap="round"/>
<path d="M325.405 245.707C369.284 257.868 448.101 271.837 412.341 230.424C401.056 219.304 384.403 206.266 357.616 194.762" stroke="black" stroke-width="2" stroke-linecap="round"/>
<path d="M372.899 160.742C400.18 143.268 444.124 107.168 401.659 102.566C359.194 97.9648 320.42 113.906 306.342 122.451" stroke="black" stroke-width="2" stroke-linecap="round"/>
<path d="M267.229 135.204C285.306 96.2559 314.559 15.5326 286.95 4.22606C252.439 -9.90711 207.738 30.849 171.255 128.138" stroke="black" stroke-width="2" stroke-linecap="round"/>
<path d="M131.051 101.654C90.6239 79.5234 8.09278 45.4833 1.38774 86.3709C-5.31729 127.258 76.6003 161.364 118.397 173.306" stroke="black" stroke-width="2" stroke-linecap="round"/>
<path d="M129.13 194.762C70.132 224.837 -3.79115 266.429 37.1556 288.107C53.9179 296.981 96.8106 291.558 116.531 283.506" stroke="black" stroke-width="2" stroke-linecap="round"/>
<ellipse cx="225.652" cy="391.64" rx="81.3478" ry="9.86034" fill="black"/>
</svg>
