<svg width="308" height="301" viewBox="0 0 308 301" fill="none" xmlns="http://www.w3.org/2000/svg">
<path d="M123.17 236.333C119.45 217.132 133.244 173.275 140.605 153.746C143.059 154.908 163.594 150.907 170.181 141.358C175.451 133.719 184.4 130.719 188.779 129.358C194.591 127.551 204.277 127.809 206.085 132.196L208.022 136.713C214.351 154.908 208.84 182.566 204.923 194.911L190.458 197.491C179.506 179.735 185.12 158.091 189.296 149.488C184.853 155.476 172.377 161.79 166.694 164.199C166.436 180.071 142.155 234.784 136.86 238.268C132.624 241.056 125.968 238.14 123.17 236.333Z" fill="black"/>
<path d="M132.447 239.496L130.638 242.782M124.954 237.413L121.504 246.524L121.208 247.305C120.88 248.094 120.652 249.417 121.208 250.544C121.6 251.339 122.381 252.037 123.792 252.381C127.202 253.214 140.025 254.117 146.01 254.464C147.044 254.594 149.008 254.099 148.594 251.08C148.181 248.06 146.01 245.297 143.556 244.181C141.565 243.277 136.431 241.873 130.638 242.782L124.954 237.413ZM128.83 243.14C129.438 242.994 130.041 242.876 130.638 242.782L128.83 243.14Z" stroke="black" stroke-width="2" stroke-linecap="round"/>
<path d="M192.521 196.792C192.391 200.62 192.74 208.159 193.686 209.311C194.851 210.731 196.276 210.86 204.951 208.15C211.891 205.981 214.662 205.955 216.345 205.697C217.511 205.519 218.935 205.362 218.935 202.471C218.935 198.857 217.511 196.404 213.108 195.888C209.586 195.475 204.563 197.609 202.491 198.727V195.243" stroke="black" stroke-width="2" stroke-linecap="round"/>
<path d="M175.947 66.8784C162.646 68.2225 136.51 73.8878 138.369 85.7953C138.654 86.8064 139.473 88.4196 141 89.9371C142.471 91.3987 144.598 92.7716 147.538 93.4319" stroke="black" stroke-width="2" stroke-linecap="round"/>
<path d="M141 89.937C145.159 96.4085 157.352 110.465 172.848 114.917" stroke="black" stroke-width="2" stroke-linecap="round"/>
<path d="M172.748 114.917C173.695 113.645 176.185 111.345 179.107 111.236" stroke="black" stroke-width="2" stroke-linecap="round"/>
<path d="M179.107 111.235C179.021 107.601 175.955 98.2295 164.381 89.8154" stroke="black" stroke-width="2" stroke-linecap="round"/>
<path d="M161.034 92.8278C162.235 90.8829 165.925 86.7542 171.075 85.7993" stroke="black" stroke-width="2" stroke-linecap="round"/>
<path d="M189.817 89.1465C190.375 89.8058 191.491 91.5991 191.491 93.4974" stroke="black" stroke-width="2" stroke-linecap="round"/>
<path d="M189.686 116.929C192.323 116.8 197.832 116.414 198.766 115.897C199.933 115.253 200.193 115.253 200.193 113.963C200.193 112.673 189.686 114.866 189.686 110.739C190.637 109.793 192.176 107.669 190.724 106.741C189.271 105.812 186.227 108.504 184.887 109.965C183.503 111.427 180.398 113.731 179.049 111.255" stroke="black" stroke-width="2" stroke-linecap="round"/>
<path d="M173.083 114.866C174.25 118.262 178.453 124.357 185.924 121.572C193.396 118.786 193.707 117.316 192.928 116.929" stroke="black" stroke-width="2" stroke-linecap="round"/>
<path d="M237.43 116.311C239.246 115.815 243.214 113.506 244.563 108.242C245.912 102.977 244.087 102.951 243.007 103.596" stroke="black" stroke-width="2" stroke-linecap="round"/>
<path d="M230.686 112.5C231.248 109.575 233.228 103.932 236.652 104.758" stroke="black" stroke-width="2" stroke-linecap="round"/>
<path d="M232.113 107.725C229.726 105.764 228.265 110.263 227.833 112.758C225.136 113.583 224.115 117.489 223.942 119.338C230.185 119.978 234.621 118.302 237.43 116.311C239.15 115.091 240.26 113.754 240.802 112.758C242.142 109.188 244.096 101.738 241.191 100.5C238.286 99.2609 237.473 102.048 237.43 103.596C237.741 107.106 235.917 110.994 234.966 112.5" stroke="black" stroke-width="2" stroke-linecap="round"/>
<path d="M194.503 116.887C200.123 122.134 213.878 129.97 223.942 119.338" stroke="black" stroke-width="2" stroke-linecap="round"/>
<path d="M193.499 117.595C193.499 120.031 192.896 125.583 190.487 128.305" stroke="black" stroke-width="2" stroke-linecap="round"/>
<path d="M140.953 123.285C135.649 130.444 128.223 146.624 140.953 154.076" stroke="black" stroke-width="2" stroke-linecap="round"/>
<path d="M299.595 92.493L302.607 87.4727" stroke="black" stroke-width="2" stroke-linecap="round"/>
<path d="M301.067 95.1173L306.624 94.8589" stroke="black" stroke-width="2" stroke-linecap="round"/>
<path d="M299.93 98.1831L303.277 102.534" stroke="black" stroke-width="2" stroke-linecap="round"/>
<path d="M190.526 255.823H100.121V300" stroke="black" stroke-width="2" stroke-linecap="round"/>
<path d="M253.384 211.776H179.403V265.64" stroke="black" stroke-width="2" stroke-linecap="round"/>
<path d="M302.273 150.032H242.261V221.981" stroke="black" stroke-width="2" stroke-linecap="round"/>
<path d="M291.667 103.036V160.108" stroke="black" stroke-width="2" stroke-linecap="round"/>
<path d="M291.667 83.1221V87.9751" stroke="black" stroke-width="2" stroke-linecap="round"/>
<path d="M174.435 118.109L100.344 126.631C91.7733 119.765 93.8473 109.514 95.9555 105.248L147.458 99.0742" stroke="black" stroke-width="2" stroke-linecap="round"/>
<path d="M199.863 116.051L225.292 113.607" stroke="black" stroke-width="2" stroke-linecap="round"/>
<path d="M243.879 110.907L260.53 109.749L282.861 99.6273C280.176 96.777 281.649 94.2381 282.767 93.3298L260.53 88.1421L172.499 95.4731" stroke="black" stroke-width="2" stroke-linecap="round"/>
<path d="M87.9773 105.354L95.5248 104.542C90.2903 116.269 96.2906 124.247 100.121 127.351L91.3118 128.64C83.949 119.673 85.847 109.638 87.9773 105.354Z" fill="black"/>
<path d="M283.664 100.191C280.863 97.2673 282.437 93.7852 283.604 92.6606L294.24 95.2856L283.664 100.191Z" fill="black"/>
<path d="M260.771 88.1421C257.993 91.669 254.104 100.891 260.771 109.562" stroke="black" stroke-width="2"/>
<path d="M196.784 69.1368C198.998 67.7743 215.652 69.0876 218.889 48.1391C224.432 48.2041 227.447 43.6633 223.217 41.7201C218.708 39.3951 219.047 35.1264 219.864 32.6113C221.162 29.3129 221.241 25.8498 220.961 25.1255" stroke="black" stroke-width="2" stroke-linecap="round"/>
<path d="M214.003 40.5746C214.632 40.582 215.15 39.8231 215.161 38.8796C215.173 37.9361 214.672 37.1652 214.043 37.1579C213.414 37.1505 212.895 37.9094 212.884 38.8529C212.873 39.7964 213.374 40.5672 214.003 40.5746Z" fill="black"/>
<path d="M210.911 33.66C211.835 32.6713 214.227 31.2252 216.394 33.3494" stroke="black" stroke-width="2" stroke-linecap="round"/>
<path d="M204.628 52.9097C206.328 55.5253 208.194 56.2679 211.819 54.5801" stroke="black" stroke-width="2" stroke-linecap="round"/>
<path d="M190.714 34.5767C190.32 35.4415 189.99 37.4048 191.82 38.3392" stroke="black" stroke-width="2" stroke-linecap="round"/>
<path d="M171.203 25.6959C169.046 37.4954 175.794 46.3777 180.687 53.2061C185.911 50.3833 194.475 43.6708 191.19 42.9462C187.738 42.1848 184.098 32.7688 187.45 29.8885C191.383 26.5091 194.928 31.6223 195.604 35.4994L198.772 30.0211C197.876 26.1894 197.525 19.4681 203.286 23.2361C209.047 27.0041 217.497 26.0171 221.002 25.0526C227.914 20.1057 238.651 8.56678 226.312 1.98652C216.049 -3.48645 202.694 3.43287 194.541 9.65024C189.022 8.19304 174.144 9.60767 171.203 25.6959Z" fill="black"/>
<path d="M181.071 52.4155C183.565 55.419 184.805 57.9131 184.65 63.0797" stroke="black" stroke-width="2" stroke-linecap="round"/>
<path d="M178.295 69.9966C177.421 66.9496 176.909 61.1381 181.85 62.2676C188.025 63.6793 200.612 69.7861 199.69 73.1711" stroke="black" stroke-width="2" stroke-linecap="round"/>
<path d="M199.691 77.9341C204.209 82.1177 205.213 84.7952 205.882 89.8155" stroke="black" stroke-width="2" stroke-linecap="round"/>
<path d="M-12 213.635C-5.86226 213.076 8.60047 216.736 18.2616 235.559C18.5143 236.051 19.2269 236.064 19.4786 235.572C29.3883 216.172 41.5509 196.492 79.9946 220.187C80.5856 220.551 81.3611 219.892 81.0682 219.262C74.831 205.847 71.4603 180.265 100.525 167.573C101.108 167.319 101.082 166.452 100.472 166.273L92.9537 164.076C92.2646 163.875 92.3396 162.929 93.0548 162.865C100.799 162.167 111.725 162.622 107.964 167.191C103.572 172.526 102.492 175.899 103.563 181.469" stroke="black" stroke-width="2" stroke-linecap="round"/>
</svg>
