<svg width="344" height="252" viewBox="0 0 344 252" fill="none" xmlns="http://www.w3.org/2000/svg">
<path d="M262.962 234.536C252.57 226.069 266.651 225.074 274.99 225.636V231.169L294.956 236.22C288.621 239.187 273.354 243.004 262.962 234.536Z" fill="black"/>
<path d="M317.568 229.485C310.833 230.254 308.828 227.239 308.668 225.636H323.101C324.063 226.598 324.304 228.715 317.568 229.485Z" fill="black"/>
<path d="M302.413 206.151C294.956 206.151 290.866 205.67 284.853 205.189" stroke="black" stroke-width="2" stroke-linecap="round"/>
<path d="M308.186 209.038V232.131" stroke="black" stroke-width="2" stroke-linecap="round"/>
<path d="M290.866 210.24L274.99 209.038" stroke="black" stroke-width="2" stroke-linecap="round"/>
<path d="M298.323 212.646V235.98" stroke="black" stroke-width="2" stroke-linecap="round"/>
<path d="M298.083 236.461L308.186 232.371" stroke="black" stroke-width="2" stroke-linecap="round"/>
<path d="M284.612 205.189L274.99 209.038" stroke="black" stroke-width="2" stroke-linecap="round"/>
<path d="M274.75 209.278V231.409" stroke="black" stroke-width="2" stroke-linecap="round"/>
<path d="M274.508 231.169L298.083 236.461" stroke="black" stroke-width="2" stroke-linecap="round"/>
<path d="M302.413 206.632V199.897" stroke="black" stroke-width="2" stroke-linecap="round"/>
<path d="M323.341 225.395V202.062" stroke="black" stroke-width="2" stroke-linecap="round"/>
<path d="M334.648 194.364V220.344" stroke="black" stroke-width="2" stroke-linecap="round"/>
<path d="M323.341 225.876L334.647 220.344" stroke="black" stroke-width="2" stroke-linecap="round"/>
<path d="M334.648 194.123L309.149 193.161" stroke="black" stroke-width="2" stroke-linecap="round"/>
<path d="M302.413 199.897L309.148 193.161" stroke="black" stroke-width="2" stroke-linecap="round"/>
<path d="M323.341 201.821L334.407 194.604" stroke="black" stroke-width="2" stroke-linecap="round"/>
<path d="M323.342 225.395H309.149" stroke="black" stroke-width="2" stroke-linecap="round"/>
<path d="M302.654 199.897L316.366 200.378" stroke="black" stroke-width="2" stroke-linecap="round"/>
<path d="M110.435 244.662C110.675 237.926 137.617 240.091 139.301 240.332V244.662L147.48 250.435C135.051 250.756 110.242 250.05 110.435 244.662Z" fill="black"/>
<path d="M177.309 243.94V219.404" stroke="black" stroke-width="2" stroke-linecap="round"/>
<path d="M156.38 250.194V223.252" stroke="black" stroke-width="2" stroke-linecap="round"/>
<path d="M139.061 243.94V216.998" stroke="black" stroke-width="2" stroke-linecap="round"/>
<path d="M139.061 216.998L158.065 212.187" stroke="black" stroke-width="2" stroke-linecap="round"/>
<path d="M177.309 219.163L156.38 223.012" stroke="black" stroke-width="2" stroke-linecap="round"/>
<path d="M156.38 250.435L177.309 244.181" stroke="black" stroke-width="2" stroke-linecap="round"/>
<path d="M177.309 219.163L158.064 212.187" stroke="black" stroke-width="2" stroke-linecap="round"/>
<path d="M139.061 217.239L156.622 223.012" stroke="black" stroke-width="2" stroke-linecap="round"/>
<path d="M200.761 243.459C196.335 235.761 210.463 234.638 218.081 235.039V240.572L242.858 243.459C230.67 246.666 205.187 251.156 200.761 243.459Z" fill="black"/>
<path d="M255.126 233.115L245.744 242.737" stroke="black" stroke-width="2" stroke-linecap="round"/>
<path d="M243.579 213.39L219.283 211.706" stroke="black" stroke-width="2" stroke-linecap="round"/>
<path d="M229.146 205.451L255.125 206.654" stroke="black" stroke-width="2" stroke-linecap="round"/>
<path d="M218.801 211.706L217.599 239.61" stroke="black" stroke-width="2" stroke-linecap="round"/>
<path d="M255.126 207.135V232.634" stroke="black" stroke-width="2" stroke-linecap="round"/>
<path d="M245.744 222.29V242.737" stroke="black" stroke-width="2" stroke-linecap="round"/>
<path d="M218.801 211.706L229.145 205.451" stroke="black" stroke-width="2" stroke-linecap="round"/>
<path d="M245.744 242.737L217.359 239.851" stroke="black" stroke-width="2" stroke-linecap="round"/>
<path d="M195.745 63.1709C196.787 62.85 199.545 62.5455 202.239 63.8926" stroke="black" stroke-width="2" stroke-linecap="round"/>
<path d="M186.122 75.6796C187.982 75.6796 189.49 74.0641 189.49 72.0713C189.49 70.0784 187.982 68.463 186.122 68.463C184.262 68.463 182.754 70.0784 182.754 72.0713C182.754 74.0641 184.262 75.6796 186.122 75.6796Z" fill="black"/>
<path d="M213.545 80.4906C215.405 80.4906 216.913 78.8752 216.913 76.8823C216.913 74.8895 215.405 73.274 213.545 73.274C211.685 73.274 210.177 74.8895 210.177 76.8823C210.177 78.8752 211.685 80.4906 213.545 80.4906Z" fill="black"/>
<path d="M177.943 66.2981C178.184 64.7744 179.675 61.8719 183.716 62.4492" stroke="black" stroke-width="2" stroke-linecap="round"/>
<path d="M208.734 65.817C210.659 64.1332 215.47 61.7757 219.319 65.817" stroke="black" stroke-width="2" stroke-linecap="round"/>
<path d="M198.391 69.9063C200.636 73.595 203.779 81.501 198.391 83.6179L195.745 84.5801" stroke="black" stroke-width="2" stroke-linecap="round"/>
<path d="M189.25 92.0374C189.811 93.561 191.944 96.0786 195.985 93.9618" stroke="black" stroke-width="2" stroke-linecap="round"/>
<path d="M111.791 56.6759C103.901 82.6557 125.823 101.499 137.771 107.673C148.548 101.13 163.911 97.8105 170.486 96.8483C162.307 90.1128 159.821 77.7643 159.18 72.0713C154.85 73.5147 143.304 67.9819 148.596 56.6759C152.83 47.6311 157.416 52.2656 159.18 55.7137L170.967 61.0059C170.967 50.0367 178.504 46.3321 182.273 45.851C184.583 44.3115 187.084 39.2757 188.047 36.9506C189.201 45.9954 201.036 52.5865 206.81 54.7515C214.315 48.7858 220.361 52.2656 222.446 54.7515L227.738 54.0298C238.082 50.5019 256.652 38.442 248.185 18.4279C239.717 -1.58609 222.205 2.07032 214.507 6.40028C188.143 -11.112 161.666 14.4987 151.723 29.4934C141.7 27.7292 119.681 30.6962 111.791 56.6759Z" fill="black"/>
<path d="M170.727 61.2466L159.18 55.2327" stroke="black" stroke-width="2" stroke-linecap="round"/>
<path d="M195.503 60.7654C195.503 69.0621 189.833 75.4392 183.235 75.4392C176.637 75.4392 170.967 69.0621 170.967 60.7654C170.967 52.4683 176.637 46.0917 183.235 46.0917C189.833 46.0917 195.503 52.4683 195.503 60.7654Z" stroke="black" stroke-width="2"/>
<path d="M227.257 66.0575C227.257 74.3542 221.587 80.7312 214.989 80.7312C208.391 80.7312 202.721 74.3542 202.721 66.0575C202.721 57.7603 208.391 51.3837 214.989 51.3837C221.587 51.3837 227.257 57.7603 227.257 66.0575Z" stroke="black" stroke-width="2"/>
<path d="M227.738 112.429C246.213 97.6111 235.676 77.6293 227.979 69.3701C223.745 89.3842 213.947 97.996 209.697 99.9204L216.432 103.529L227.738 112.429Z" fill="black"/>
<path d="M160.623 60.7653C160.223 56.355 155.091 45.851 149.558 55.7137C147.152 60.2039 145.42 69.8101 157.737 72.3119" stroke="black" stroke-width="2" stroke-linecap="round"/>
<path d="M156.534 59.0815C155.412 60.0437 153.744 62.5455 156.053 64.8548" stroke="black" stroke-width="2" stroke-linecap="round"/>
<path d="M226.295 71.5904C224.948 79.2881 221.965 86.2608 218.837 90.5941C216.882 93.3037 213.714 96.7239 209.675 99.7053" stroke="black" stroke-width="2" stroke-linecap="round"/>
<path d="M158.94 72.312C158.78 82.0944 162.597 96.6079 180.109 104.306C182.803 105.49 185.451 106.169 188.025 106.443" stroke="black" stroke-width="2" stroke-linecap="round"/>
<path d="M208.013 116.093C204.164 115.13 200.476 118.258 199.112 119.942C198.391 121.465 198.054 124.464 202.48 124.272C208.013 124.031 209.697 116.093 216.192 128.842C221.388 139.041 221.724 159.071 221.243 167.812" stroke="black" stroke-width="2" stroke-linecap="round" stroke-linejoin="round"/>
<path d="M195.42 113.447C194.165 116.173 193.146 121.289 199.112 119.942" stroke="black" stroke-width="2" stroke-linecap="round" stroke-linejoin="round"/>
<path d="M197.742 104.065C194.374 105.508 189.49 110.704 191.414 114.168C191.655 114.569 192.377 115.323 193.339 115.13C193.76 115.046 194.447 114.313 195.421 113.447C197.226 111.84 200.016 109.779 203.923 110.56" stroke="black" stroke-width="2" stroke-linecap="round" stroke-linejoin="round"/>
<path d="M265.058 186.666C267.464 174.879 265.12 147.22 235.676 120.663L216.192 103.584L203.923 97.0889L201.518 96.6078L192.377 98.7728L191.415 99.735L188.287 105.508C187.806 106.711 189.876 108.106 193.34 106.952" stroke="black" stroke-width="2" stroke-linecap="round" stroke-linejoin="round"/>
<path d="M169.765 97.8105C154.129 99.8951 113.538 108.858 88.939 145.2C65.7554 179.449 91.9757 193.883 111.461 194.604" stroke="black" stroke-width="2" stroke-linecap="round" stroke-linejoin="round"/>
<path d="M1.89258 199.415L110.382 194.123" stroke="black" stroke-width="2" stroke-linecap="round" stroke-linejoin="round"/>
<path d="M139.971 192.921L342.107 184.114" stroke="black" stroke-width="2" stroke-linecap="round"/>
<path d="M121.95 194.974C122.248 195.896 122.029 196.559 120.87 196.659C117.441 196.953 113.369 191.637 111.762 188.943" stroke="black" stroke-width="2" stroke-linecap="round"/>
<path d="M121.942 184.534C123.653 187.269 126.637 191.482 129.254 193.872C129.015 195.709 127.22 198.501 121.95 194.974C121.148 192.485 116.584 188.109 116.584 187.841" stroke="black" stroke-width="2" stroke-linecap="round"/>
<path d="M126.585 181.963C129.859 185.576 135.8 193.316 133.372 195.373C132.941 195.737 132.392 195.773 131.764 195.559C131.017 195.304 130.157 194.697 129.254 193.872C126.637 191.482 123.653 187.269 121.942 184.534" stroke="black" stroke-width="2" stroke-linecap="round"/>
<path d="M99.673 191.378C105.149 184.52 122.656 169.655 132.657 178.656C136.645 182.636 141.616 189.83 138.759 192.769C137.33 193.872 134.237 192.402 132.242 189.463" stroke="black" stroke-width="2" stroke-linecap="round"/>
<path d="M119.183 152.267C115.735 154.994 110.33 162.082 116.296 168.625" stroke="black" stroke-width="2" stroke-linecap="round"/>
</svg>
