<svg width="276" height="269" viewBox="0 0 276 269" fill="none" xmlns="http://www.w3.org/2000/svg">
<path d="M0.417881 261.836C-2.47563 259.27 10.3807 259.46 16.7262 259.342C17.6399 260.625 18.3125 260.648 19.9623 260.945C20.7238 262.905 3.31139 264.402 0.417881 261.836Z" fill="black"/>
<path d="M99.3504 67.8916C98.7619 70.0211 98.3235 76.9406 100.634 82.6185" stroke="black" stroke-width="2" stroke-linecap="round"/>
<path d="M97.478 84.0103C102.962 82.0452 113.404 79.6405 113.404 86.4381V87.6178C113.404 88.4142 114.314 88.8654 114.943 88.3776C123.747 81.557 141.659 67.8918 147.97 57.5479" stroke="black" stroke-width="2" stroke-linecap="round"/>
<path d="M121.78 31.4248C127.167 35.666 135.528 44.8206 127.401 48.5447C126.925 48.7629 126.662 49.2909 126.797 49.7945C128.396 55.7154 128.144 67.9417 115.74 76.2213C115.555 76.3443 115.413 76.5273 115.346 76.7378L112.906 84.3716" stroke="black" stroke-width="2" stroke-linecap="round"/>
<path d="M116.448 62.6318C116.256 63.4734 116.753 65.2126 120.27 65.437" stroke="black" stroke-width="2" stroke-linecap="round"/>
<path d="M125.88 40.5415C125.88 42.3855 125.322 44.0071 124.479 45.1397C123.636 46.2719 122.569 46.8531 121.497 46.8531C120.425 46.8531 119.358 46.2719 118.515 45.1397C117.672 44.0071 117.114 42.3855 117.114 40.5415C117.114 38.6976 117.672 37.076 118.515 35.9433C119.358 34.8111 120.425 34.23 121.497 34.23C122.569 34.23 123.636 34.8111 124.479 35.9433C125.322 37.076 125.88 38.6976 125.88 40.5415Z" stroke="black" stroke-width="2" stroke-linecap="round"/>
<path d="M105.543 46.152L116.413 42.2949" stroke="black" stroke-width="2" stroke-linecap="round"/>
<path d="M113.958 38.7884C114.235 37.6198 115.254 34.9312 117.114 33.5288" stroke="black" stroke-width="2" stroke-linecap="round"/>
<path d="M122.023 41.5936C122.798 41.5936 123.426 41.1226 123.426 40.5417C123.426 39.9607 122.798 39.4897 122.023 39.4897C121.249 39.4897 120.621 39.9607 120.621 40.5417C120.621 41.1226 121.249 41.5936 122.023 41.5936Z" fill="black"/>
<path d="M117.253 156.604C116.607 149.711 116.091 134.5 119.191 128.801C122.29 123.101 125.269 114.948 127.363 111.649C134.408 107.583 151.196 91.9806 161.996 62.106" stroke="black" stroke-width="2" stroke-linecap="round"/>
<path d="M97.4778 83.6704L57.1541 131.007" stroke="black" stroke-width="2" stroke-linecap="round"/>
<path d="M57.1541 131.152C60.1437 130.748 67.9152 130.944 75.0893 134.961C84.0572 139.982 93.552 148.812 117.114 156.604" stroke="black" stroke-width="2" stroke-linecap="round"/>
<path d="M117.114 156.604L109.05 162.214" stroke="black" stroke-width="2" stroke-linecap="round"/>
<path d="M57.1595 131.007C56.6132 132.7 56.071 136.649 60.6613 141.526" stroke="black" stroke-width="2" stroke-linecap="round"/>
<path d="M86.6082 96.644C80.0829 102.079 63.5365 113.546 49.5535 115.931C46.291 117.275 40.6746 121.051 44.3101 125.399C47.9457 129.748 50.3695 135.043 51.127 137.147C51.7096 139.076 53.1599 141.765 56.6556 135.593" stroke="black" stroke-width="2" stroke-linecap="round"/>
<path d="M45.5837 127.15C42.8747 128.747 36.5575 131.8 32.9609 131.232C29.3642 130.664 26.9665 132.178 26.2171 133.007C25.8137 133.657 25.5601 134.994 27.7734 135.136C29.9867 135.278 32.615 135.195 33.6525 135.136" stroke="black" stroke-width="2" stroke-linecap="round"/>
<path d="M36.4671 132.76C35.2538 134.12 31.1285 137.21 24.334 138.693C23.0051 138.94 21.214 140.361 23.6407 142.03C25.7206 143.327 31.4751 142.141 34.3871 140.361" stroke="black" stroke-width="2" stroke-linecap="round"/>
<path d="M34.3551 140.124C32.1266 141.245 28.1153 144.232 29.8981 147.207C30.4695 147.797 32.8809 147.844 37.955 143.311L41.7263 140.124" stroke="black" stroke-width="2" stroke-linecap="round"/>
<path d="M41.9153 140.191L38.0647 143.407C36.9562 146.326 35.2644 153.415 39.815 149.483C43.1404 146.088 42.4403 143.193 43.8405 142.335C45.2407 141.478 48.3911 138.166 49.7914 136.617" stroke="black" stroke-width="2" stroke-linecap="round"/>
<path d="M42.0807 134.513C41.6142 135.957 41.241 139.31 43.48 141.175" stroke="black" stroke-width="2" stroke-linecap="round"/>
<path d="M84.5046 252.679C86.7103 252.095 91.1564 249.138 91.2955 241.985C91.4351 234.832 94.372 222.524 95.8228 217.264L110.101 154.149" stroke="black" stroke-width="2" stroke-linecap="round"/>
<path d="M115.553 53.1983C116.047 53.1983 116.447 52.7983 116.447 52.305C116.447 51.8116 116.047 51.4116 115.553 51.4116C115.06 51.4116 114.66 51.8116 114.66 52.305C114.66 52.7983 115.06 53.1983 115.553 53.1983Z" fill="black"/>
<path d="M118.007 55.6524C118.501 55.6524 118.901 55.2524 118.901 54.7591C118.901 54.2657 118.501 53.8657 118.007 53.8657C117.514 53.8657 117.114 54.2657 117.114 54.7591C117.114 55.2524 117.514 55.6524 118.007 55.6524Z" fill="black"/>
<path d="M113.098 56.354C113.592 56.354 113.992 55.9541 113.992 55.4607C113.992 54.9673 113.592 54.5674 113.098 54.5674C112.605 54.5674 112.205 54.9673 112.205 55.4607C112.205 55.9541 112.605 56.354 113.098 56.354Z" fill="black"/>
<path d="M60.7464 47.4382C69.2679 31.5994 81.9918 29.608 87.289 30.5919C98.29 13.7455 113.482 8.18802 122.737 13.2246C130.141 17.2537 124.076 27.4079 120.118 31.9815L116.276 26.424C113.622 31.5647 106.032 29.6658 102.306 28.5079C105.508 35.2233 110.618 52.5794 99.8615 68.2795C89.1052 83.9796 75.5893 84.2571 68.7787 79.7418C62.4924 75.2844 52.2249 63.2776 60.7464 47.4382Z" fill="black"/>
<path d="M56.4536 254.783C57.6159 256.603 61.4871 260.036 67.6741 259.218" stroke="black" stroke-width="2" stroke-linecap="round"/>
<path d="M66.1978 132.059C64.0038 138.334 53.7249 151.235 44.5434 167.447C38.4224 177.617 23.8243 200.326 14.4003 209.809C13.1299 211.61 11.9403 215.701 17.3453 217.654C21.503 219.397 23.3739 223.441 23.9283 227.765C24.6212 233.169 33.4563 237.178 39.3463 233.169C44.041 229.973 57.5401 206.953 67.7385 193.945C70.3351 190.633 72.7176 187.97 74.6865 186.449" stroke="black" stroke-width="2" stroke-linecap="round"/>
<path d="M67.9911 194.122L56.4536 254.783C62.318 253.218 78.4272 250.264 88.362 250.264" stroke="black" stroke-width="2" stroke-linecap="round"/>
<path d="M10.5663 249.77C1.00894 231.244 9.86852 218.915 14.6601 215.862C22.0879 218.199 22.2887 225.987 23.4932 229.686L20.7132 237.298C18.8529 240.573 19.9381 246.977 20.7132 249.77C23.9264 262.71 19.0767 263.954 16.6967 260.488L10.5663 249.77Z" fill="black"/>
<path d="M61.5237 266.758C58.3043 264.208 64.6716 263.22 71.1325 262.848C73.3834 264.86 88.3336 265.547 89.0631 266.013C82.1851 268.249 64.3449 268.992 61.5237 266.758Z" fill="black"/>
<path d="M93.8601 265.667C69.4511 269.013 64.3853 259.359 64.9034 253.715C69.1013 251.962 80.6447 251.325 86.0864 250.926C84.5315 254.591 86.4749 254.113 87.8353 255.109C89.5847 256.305 94.443 257.765 97.1639 257.898C109.407 258.496 99.8199 264.804 93.8601 265.667Z" fill="black"/>
<path d="M151.359 26.683C152.477 26.0402 154.783 25.8064 155.064 30.0141" stroke="black" stroke-width="2" stroke-linecap="round"/>
<path d="M149.103 37.9033C149.219 36.2672 149.103 32.5385 147.7 30.7152C145.947 28.436 145.596 24.053 149.103 24.4036C150.216 24.515 150.924 25.4397 151.359 26.6828C152.02 28.5724 152.049 31.1975 151.908 32.819" stroke="black" stroke-width="2" stroke-linecap="round"/>
<path d="M146.899 42.4617C146.757 40.8838 146.158 37.2371 144.895 35.2735C143.317 32.8191 143.142 26.5075 146.473 27.2088" stroke="black" stroke-width="2" stroke-linecap="round"/>
<path d="M149.103 54.3835C148.226 54.3835 146.368 53.542 145.947 50.1758C145.526 46.8097 144.019 44.6827 143.317 44.0396C142.908 43.0462 142.476 40.989 144.019 40.7085C144.927 40.5433 146.001 41.4238 146.899 42.4617L148.402 44.5656" stroke="black" stroke-width="2" stroke-linecap="round"/>
<path d="M157.168 38.7797C157.577 38.0202 157.974 36.0797 156.291 34.3967C154.187 32.2929 154.713 30.3643 155.941 29.8384C157.168 29.3124 158.921 29.663 160.674 34.9227C162.428 39.4809 165.022 51.0521 162.077 60.8701" stroke="black" stroke-width="2" stroke-linecap="round"/>
<path d="M165.177 11.347L167.928 6.3457" stroke="black" stroke-width="2" stroke-linecap="round"/>
<path d="M141.389 13.709L146.298 16.8648" stroke="black" stroke-width="2" stroke-linecap="round"/>
<path d="M150.295 1L155.098 12.042" stroke="black" stroke-width="2" stroke-linecap="round"/>
<path d="M167.294 26.515C167.294 22.8338 168.15 16.6888 172.603 22.2541C175.343 26.2542 176.371 34.2195 174.316 38.2542" stroke="black" stroke-width="2" stroke-linecap="round"/>
<path d="M158.218 29.906C157.647 27.877 157.361 24.0973 160.786 25.2103L164.554 32.8626" stroke="black" stroke-width="2" stroke-linecap="round"/>
<path d="M164.554 32.8624L160.786 25.2101C160.501 22.9492 161.985 19.297 165.582 22.2536L167.294 26.5145L169.007 30.7754" stroke="black" stroke-width="2" stroke-linecap="round"/>
<path d="M169.09 43.689C168.155 45.7346 167.161 50.3862 170.668 52.6303" stroke="black" stroke-width="2" stroke-linecap="round"/>
<path d="M173.472 40.7086C174.29 38.3713 176.768 33.731 180.135 33.8713C183.501 34.0115 180.836 38.4295 180.135 40.0074L175.226 49.65C174.174 52.2798 172.596 57.0135 176.278 62.4484C179.959 67.3574 192.655 79.9805 206.33 82.0843" stroke="black" stroke-width="2" stroke-linecap="round"/>
<path d="M203.803 155.368C204.855 159.109 208.712 167.781 215.725 172.55M192.933 149.232L206.783 153.265L192.933 149.232ZM206.082 160.277C207.601 155.31 209.553 142.991 205.205 133.453C199.77 121.532 196.439 106.279 199.069 96.11C201.173 87.9751 208.828 86.7595 212.393 87.1687C218.004 87.8124 227.681 94.5321 227.12 112.765C226.419 135.557 221.159 155.018 213.621 170.095L206.082 160.277Z" stroke="black" stroke-width="2" stroke-linecap="round"/>
<path d="M200.472 168.517C200.472 159.576 200.414 153.264 199.42 150.81C212.885 155.859 229.225 154.55 235.712 153.264C235.887 153.673 237.324 157.577 241.672 169.92C247.107 185.348 243.25 236.892 241.672 242.678C240.095 248.463 235.887 248.639 229.751 247.937C224.842 247.376 218.355 233.912 215.725 227.249C203.453 204.282 200.472 179.008 200.472 168.517Z" fill="black"/>
<path d="M248.078 121.894C249.817 126.16 253.751 137.007 255.574 146.264C250.548 149.829 236.412 156.595 219.582 154.491L192.933 149.232C191.881 140.407 191.758 117.932 198.77 97.875C198.77 96.0636 200.612 90.9902 204.679 88.7461" stroke="black" stroke-width="2" stroke-linecap="round"/>
<path d="M246.581 137.135C246.506 136.009 248.584 127.819 248.078 121.894C247.796 118.59 247.436 114.468 246.984 109.447C245.721 95.4209 240.73 84.6681 238.393 81.0446C236.055 77.4214 230.525 75.2467 226.142 76.8246" stroke="black" stroke-width="2" stroke-linecap="round"/>
<path d="M243.216 231.091C244.727 198.208 238.025 167.138 234.309 155.018C243.68 153.753 251.061 149.702 253.769 148.355C256.49 158.614 260.472 184.952 262.109 197.014C266.19 210.223 265.321 229.218 264.376 237.064C264.98 241.841 261.101 243.739 259.086 244.09C248.355 247.603 244.035 236.888 243.216 231.091Z" fill="black"/>
<path d="M157.869 29.3125C160.849 34.1046 165.267 45.7224 161.901 62.2727C162.193 65.8376 167.396 77.6259 171.368 82.9605C177.505 91.2006 190.303 100.493 198.192 103.122" stroke="black" stroke-width="2" stroke-linecap="round"/>
<path d="M212.264 79.3542C209.945 77.9268 192.498 79.3027 189.106 57.3557C183.298 57.4237 180.14 52.6666 184.571 50.6308C189.295 48.1949 188.941 43.7228 188.085 41.0877C186.724 37.6321 186.642 34.004 186.935 33.2451" stroke="black" stroke-width="2" stroke-linecap="round"/>
<path d="M193.924 49.4667C193.094 49.4764 192.41 48.4754 192.395 47.2309C192.38 45.9864 193.041 44.9697 193.871 44.96C194.7 44.9503 195.385 45.9512 195.399 47.1957C195.414 48.4402 194.753 49.457 193.924 49.4667Z" fill="black"/>
<path d="M197.464 42.1862C196.496 41.1507 193.99 39.6356 191.719 41.8611" stroke="black" stroke-width="2" stroke-linecap="round"/>
<path d="M204.046 62.354C202.266 65.0943 200.311 65.8723 196.513 64.1041" stroke="black" stroke-width="2" stroke-linecap="round"/>
<path d="M218.625 43.147C219.037 44.053 219.383 46.1099 217.465 47.0889" stroke="black" stroke-width="2" stroke-linecap="round"/>
<path d="M239.064 33.8426C241.324 46.2045 234.254 55.5102 229.129 62.664C223.655 59.7067 214.684 52.6742 218.124 51.9151C221.741 51.1174 225.555 41.2528 222.043 38.2352C217.922 34.6946 214.208 40.0515 213.5 44.1133L210.182 38.374C211.12 34.3596 211.488 27.3179 205.453 31.2655C199.417 35.213 190.564 34.1791 186.891 33.1686C179.651 27.9859 168.401 15.897 181.329 9.00307C192.081 3.26925 206.072 10.5184 214.613 17.0321C220.397 15.5054 235.984 16.9875 239.064 33.8426Z" fill="black"/>
<path d="M228.727 61.8359C226.113 64.9826 224.815 67.5956 224.976 73.0084" stroke="black" stroke-width="2" stroke-linecap="round"/>
<path d="M244.958 268.886C223.218 269.762 212.874 265.401 212.874 262.399C212.874 261.172 212.173 259.944 217.082 258.191C214.978 261.055 215.749 266.501 235.666 265.379C238.88 265.555 246.115 264.713 249.341 259.944H250.919C266.697 255.912 275.989 259.222 275.989 262.224C275.989 265.225 263.016 268.158 244.958 268.886Z" fill="black"/>
<path d="M249.031 259.868C260.774 260.99 262.255 251.569 261.528 246.719" stroke="black" stroke-width="2" stroke-linecap="round"/>
<path d="M233.477 251.277C233.477 252.037 233.301 253.696 232.6 254.257C231.724 254.959 215.945 253.205 216.295 261.095C216.12 262.205 217.873 263.9 222.081 264.426C227.999 265.166 244.963 267.325 249.032 259.868C249.268 259.433 249.461 258.966 249.606 258.465L251.184 251.803" stroke="black" stroke-width="2" stroke-linecap="round"/>
</svg>
