<svg width="51" height="31" viewBox="0 0 51 31" fill="none" xmlns="http://www.w3.org/2000/svg">
<path id="Vector" d="M50.7304 24.491C47.9319 21.7656 44.3991 20.0292 40.5128 19.4691C40.0171 19.3975 39.5555 19.7381 39.4839 20.2245C39.4115 20.7118 39.7555 21.1667 40.2508 21.2384C43.4294 21.6963 46.3626 23.0377 48.7625 25.1263C45.8103 27.6915 42.0196 29.1374 38.0365 29.2084C34.25 29.2783 30.5935 28.0957 27.626 25.8732C36.6664 24.729 43.7248 17.1157 43.7752 7.96261C43.7766 7.72552 43.6797 7.49327 43.5102 7.32624C43.3277 7.1455 43.0826 7.0468 42.847 7.06367C38.9969 7.08759 35.3201 8.27276 32.2131 10.4917C31.8081 10.7816 31.7179 11.3418 32.012 11.7405C32.1546 11.9334 32.3649 12.0603 32.6041 12.0979C32.8435 12.1355 33.0842 12.0791 33.2806 11.9387C35.8195 10.1249 38.8001 9.07283 41.927 8.88258C41.6705 12.9325 39.8913 16.7178 36.8873 19.5836C34.2868 22.0646 31.007 23.6211 27.4867 24.0849C33.0619 16.9939 32.6174 6.73141 26.1138 0.259656C25.9481 0.0946128 25.7127 0 25.468 0C25.2234 0 24.9881 0.0946094 24.8225 0.259468C22.0538 3.0145 20.2896 6.49197 19.7211 10.3163C19.6487 10.8038 19.9925 11.2586 20.4903 11.3305C20.9857 11.3993 21.4463 11.0601 21.5182 10.5751C21.9834 7.44707 23.3461 4.55955 25.4674 2.19691C28.1742 5.21984 29.6178 9.11436 29.5412 13.2145C29.4748 16.7631 28.2704 20.1349 26.1177 22.9073C24.9653 14.0822 17.3252 7.16088 8.14344 7.06776C7.89565 7.06614 7.66474 7.1571 7.49097 7.32636C7.32002 7.49308 7.22182 7.72465 7.22182 7.96167V9.62088C7.22182 9.65015 7.22327 9.67985 7.22648 9.7115C7.54085 12.7523 8.64925 15.6845 10.4317 18.1915C10.718 18.5945 11.2847 18.6932 11.6967 18.4113C11.8954 18.2744 12.0281 18.0695 12.0701 17.8344C12.1124 17.5992 12.0591 17.362 11.9199 17.1663C10.3238 14.9216 9.32755 12.297 9.03806 9.57493V8.89024C13.1052 9.15673 16.908 10.9111 19.786 13.8588C22.2726 16.4055 23.8335 19.609 24.3008 23.0418C17.1486 17.6192 6.78338 18.1533 0.271989 24.4315C0.0977696 24.6001 0.00121136 24.8253 1.46277e-05 25.0649C-0.00137107 25.3023 0.0957538 25.5347 0.266131 25.7019L1.45442 26.8712C1.47654 26.8936 1.49965 26.9142 1.52623 26.9358C4.77412 29.5415 8.87798 30.9766 13.0824 30.9764H13.0839H13.1176C16.4036 30.974 19.6263 30.105 22.4373 28.4634C22.6459 28.3416 22.7939 28.1469 22.8539 27.9157C22.914 27.6841 22.8788 27.4436 22.7552 27.2385C22.6318 27.0332 22.4343 26.8875 22.1992 26.8284C21.9637 26.7689 21.7189 26.8038 21.5103 26.9256C18.9812 28.4026 16.0806 29.1852 13.1207 29.1886H13.0742C9.30499 29.1866 5.62506 27.9045 2.70949 25.5781L2.21732 25.0939C5.28758 22.4464 9.22841 21.0303 13.3741 21.0947C17.6676 21.1629 21.6962 22.8197 24.7177 25.7601L24.7208 25.763C24.7225 25.7646 24.7247 25.7669 24.7264 25.7685C28.1938 29.1423 32.8081 31 37.7218 31H37.7242C42.6426 30.9998 47.2619 29.1396 50.7311 25.7619C50.9017 25.595 51 25.3634 51 25.1264C51 24.8894 50.9017 24.6578 50.7304 24.491Z" fill="black"/>
</svg>
