<svg width="24" height="24" viewBox="0 0 24 24" fill="none" xmlns="http://www.w3.org/2000/svg">
<path d="M11.6614 14.4965C11.417 14.4849 11.1971 14.4505 11 14.3965M11.6614 14.4965L13.3765 9.71317M11.6614 14.4965C11.8954 14.5076 12.1099 14.4917 12.3065 14.4538M10.4592 10.2758C9.77227 10.8625 9.36011 12.1141 9.64891 13.1036M10.4592 10.2758L9.64891 13.1036M10.4592 10.2758C10.6142 10.1435 10.8645 9.9532 11.1877 9.79418M9.64891 13.1036C9.72059 13.3491 9.83544 13.5785 9.99999 13.7777M9.99999 13.7777L11.1877 9.79418M9.99999 13.7777C10.122 13.9253 10.2713 14.0562 10.4505 14.1647M11.1877 9.79418C11.4227 9.67852 11.6964 9.57941 12 9.53122M12 9.53122L10.4505 14.1647M12 9.53122C12.217 9.49678 12.4493 9.48836 12.6937 9.5185M10.4505 14.1647C10.6095 14.261 10.792 14.3396 11 14.3965M11 14.3965L12.6937 9.5185M12.6937 9.5185C12.8116 9.53303 12.9322 9.55652 13.0553 9.59037C13.1685 9.6215 13.2757 9.6629 13.3765 9.71317M13.3765 9.71317C13.5892 9.81927 13.7736 9.96485 13.9265 10.1366M12.3065 14.4538L13.9265 10.1366M12.3065 14.4538C12.6638 14.385 12.962 14.2435 13.2105 14.0598M13.9265 10.1366C14.0418 10.2662 14.1392 10.4106 14.2173 10.5643M14.2173 10.5643C14.4062 10.9358 14.4823 11.3609 14.4266 11.7588C14.4151 11.8409 14.2303 13.306 13.2105 14.0598M14.2173 10.5643L13.2105 14.0598" stroke="white" stroke-opacity="0.8" stroke-linecap="round"/>
<path d="M4.49979 9.59037C4.2081 9.51016 3.93027 9.48814 3.671 9.50561M4.49979 9.59037L3.58427 14.48M4.49979 9.59037C4.7132 9.64905 4.90516 9.74427 5.07344 9.86653M1.90362 10.2758C1.08053 10.9789 0.651915 12.6365 1.35117 13.654M1.90362 10.2758L1.35117 13.654M1.90362 10.2758C2.07853 10.1265 2.37482 9.90333 2.76029 9.73462M20.217 14.4965C20.0238 14.4874 19.8459 14.4639 19.6824 14.4278M20.217 14.4965L21.1091 9.50526M20.217 14.4965C20.418 14.5061 20.6046 14.4957 20.7778 14.4685M21.6109 9.59037C21.4385 9.54295 21.2708 9.51587 21.1091 9.50526M21.6109 9.59037L20.7778 14.4685M21.6109 9.59037C21.7499 9.62859 21.8798 9.68232 22 9.74892M19.0147 10.2758C18.232 10.9444 17.806 12.4764 18.3675 13.5M19.0147 10.2758L18.3675 13.5M19.0147 10.2758C19.106 10.1979 19.2303 10.0999 19.3831 10M1.35117 13.654C1.53568 13.9225 1.79872 14.1464 2.15376 14.2964M2.15376 14.2964L2.76029 9.73462M2.15376 14.2964C2.36621 14.3861 2.6116 14.4495 2.89283 14.48M2.76029 9.73462C3.02522 9.61866 3.33228 9.52843 3.671 9.50561M3.671 9.50561L2.89283 14.48M2.89283 14.48C2.96168 14.4875 3.03268 14.4931 3.10587 14.4965C3.27537 14.5046 3.43464 14.4984 3.58427 14.48M3.58427 14.48C3.9416 14.4361 4.24402 14.3223 4.49979 14.1647M5.07344 9.86653L4.49979 14.1647M5.07344 9.86653C5.32497 10.0493 5.52358 10.2924 5.6618 10.5643M4.49979 14.1647C4.72543 14.0257 4.91475 13.8526 5.07344 13.6634M5.07344 13.6634C5.72812 12.8829 5.86131 11.8281 5.87102 11.7588C5.92678 11.3609 5.85067 10.9358 5.6618 10.5643M5.07344 13.6634L5.6618 10.5643M18.3675 13.5C18.4842 13.7126 18.6434 13.9033 18.851 14.0598M19.9216 9.71317L19.2158 14.2749M19.9216 9.71317C19.7167 9.79854 19.5357 9.90021 19.3831 10M19.9216 9.71317C20.0977 9.63977 20.2915 9.57842 20.5 9.54066M19.2158 14.2749C19.0805 14.2137 18.9592 14.1414 18.851 14.0598M19.2158 14.2749C19.3561 14.3384 19.5113 14.39 19.6824 14.4278M18.851 14.0598L19.3831 10M20.5 9.54066L19.6824 14.4278M20.5 9.54066C20.6914 9.50601 20.8951 9.49123 21.1091 9.50526M20.7778 14.4685C20.9289 14.4449 21.0698 14.4085 21.2012 14.3615M21.2012 14.3615L22 9.74892M21.2012 14.3615C21.4133 14.2856 21.6007 14.1821 21.7661 14.0598M22 9.74892C22.1843 9.85103 22.3457 9.9834 22.4821 10.1366M22.4821 10.1366L21.7661 14.0598M22.4821 10.1366C22.6544 10.3302 22.7867 10.5571 22.8745 10.7982M21.7661 14.0598C21.9838 13.8988 22.1635 13.7054 22.3116 13.5M22.3116 13.5C22.8569 12.7434 22.9731 11.8233 22.9821 11.7588C23.0265 11.4423 22.9874 11.1085 22.8745 10.7982M22.3116 13.5L22.8745 10.7982" stroke="#A02CFB" stroke-linecap="round"/>
</svg>
